<svg id="svg" version="1.1" width="418" height="417" xmlns="http://www.w3.org/2000/svg"><path d="M186.000 1.674 C 155.618 4.748,122.408 16.262,96.833 32.588 C 71.506 48.755,44.969 75.820,29.613 101.146 C 18.395 119.646,8.387 145.518,3.946 167.500 C 1.176 181.208,0.063 219.680,1.958 236.181 C 5.960 271.010,19.379 304.198,41.106 333.000 C 50.084 344.900,70.954 366.149,81.500 374.126 C 115.110 399.548,150.106 412.834,192.135 416.130 C 236.668 419.622,280.004 409.772,316.540 387.852 C 334.617 377.007,359.181 355.423,373.274 338.000 C 395.521 310.497,410.346 276.162,415.560 240.061 C 416.885 230.893,417.116 223.545,416.724 203.061 C 416.290 180.383,415.938 176.116,413.606 165.231 C 407.082 134.782,393.729 105.808,375.405 82.341 C 340.543 37.695,292.010 9.567,237.699 2.529 C 227.003 1.143,196.270 0.635,186.000 1.674 M250.000 10.433 C 305.891 22.341,352.870 55.188,382.483 103.059 C 400.870 132.785,410.510 165.626,411.715 202.647 C 412.822 236.676,406.248 267.668,391.593 297.500 C 380.483 320.117,368.870 336.049,350.358 354.071 C 320.936 382.716,286.521 400.316,244.500 408.208 C 234.203 410.142,229.166 410.462,209.000 410.462 C 188.699 410.462,183.868 410.152,173.509 408.180 C 128.067 399.529,92.588 380.356,61.200 347.487 C 15.521 299.653,-3.112 232.992,10.470 166.000 C 25.311 92.797,84.247 31.538,157.761 12.903 C 178.017 7.768,185.137 7.056,212.500 7.429 C 235.002 7.735,238.749 8.035,250.000 10.433 M185.000 12.121 C 139.955 17.297,100.256 36.748,67.444 69.719 C 37.557 99.751,18.848 136.485,12.397 177.795 C 10.083 192.616,10.080 226.742,12.392 240.457 C 18.979 279.540,34.270 311.813,59.845 340.614 C 81.348 364.829,110.321 384.611,140.000 395.341 C 182.301 410.635,233.063 410.982,275.500 396.270 C 347.385 371.348,399.376 306.038,406.952 231.144 C 413.251 168.881,393.559 112.418,350.560 69.448 C 311.070 29.984,263.538 10.636,207.289 11.130 C 199.155 11.201,189.125 11.647,185.000 12.121 M245.000 16.413 C 271.533 21.947,290.357 29.147,311.488 41.845 C 324.051 49.394,333.829 56.944,345.363 68.000 C 372.504 94.016,390.573 124.846,399.535 160.427 C 404.267 179.215,405.326 190.530,404.721 215.864 C 404.288 234.002,403.793 239.392,401.659 249.203 C 393.063 288.728,374.958 321.291,345.855 349.572 C 318.695 375.966,287.546 392.428,249.000 400.761 C 237.122 403.329,235.131 403.463,209.000 403.463 C 182.914 403.463,180.856 403.325,168.979 400.772 C 127.853 391.933,91.451 371.199,63.565 340.729 C 38.632 313.486,22.348 280.474,15.358 243.000 C 13.093 230.857,12.764 189.619,14.840 178.000 C 21.018 143.422,34.557 112.951,55.367 86.790 C 58.740 82.550,61.796 79.063,62.158 79.040 C 63.518 78.957,58.615 92.669,54.218 101.250 C 53.415 102.817,58.346 101.918,59.705 100.250 C 61.007 98.652,61.094 98.742,60.700 101.274 C 60.127 104.957,61.740 105.813,63.002 102.495 C 64.440 98.713,64.230 96.000,62.500 96.000 C 61.675 96.000,61.000 95.550,61.000 95.000 C 61.000 92.974,64.079 94.079,65.182 96.500 C 66.034 98.370,66.034 99.630,65.182 101.500 C 64.176 103.708,64.274 104.000,66.021 104.000 C 67.959 104.000,68.337 105.889,66.647 107.123 C 65.716 107.802,67.631 112.054,69.400 113.235 C 71.366 114.548,73.133 114.042,72.838 112.250 C 72.377 109.450,73.903 107.675,75.577 109.064 C 76.676 109.976,77.125 109.839,77.668 108.423 C 78.074 107.364,77.873 106.458,77.180 106.227 C 76.108 105.869,75.431 103.000,76.418 103.000 C 76.648 103.000,77.661 102.741,78.668 102.424 C 80.216 101.938,80.189 102.047,78.500 103.123 C 76.553 104.363,76.566 104.415,79.000 105.098 C 83.088 106.247,86.000 106.086,86.000 104.712 C 86.000 104.004,83.761 101.220,81.025 98.524 C 78.288 95.829,75.342 92.133,74.478 90.312 C 73.490 88.230,72.181 87.000,70.953 87.000 C 69.879 87.000,69.000 86.550,69.000 86.000 C 69.000 84.473,66.870 84.807,64.829 86.655 C 63.179 88.148,63.000 88.154,63.000 86.714 C 63.000 85.836,63.453 84.838,64.007 84.496 C 64.561 84.153,65.702 82.543,66.543 80.918 C 67.991 78.117,67.959 77.920,65.936 77.172 C 63.992 76.453,64.499 75.731,71.651 69.052 C 88.775 53.058,101.400 44.041,119.737 34.704 C 137.647 25.586,157.560 19.054,176.500 16.086 C 180.350 15.482,184.625 14.801,186.000 14.571 C 192.426 13.499,237.823 14.916,245.000 16.413 M212.698 24.095 C 210.606 25.199,208.057 25.835,207.032 25.510 C 204.673 24.761,203.446 26.627,205.036 28.544 C 206.606 30.435,209.421 30.403,211.020 28.476 C 211.716 27.638,212.509 27.176,212.784 27.450 C 213.058 27.725,211.628 29.968,209.606 32.436 C 206.968 35.655,204.935 37.109,202.411 37.583 C 199.551 38.119,198.950 38.641,199.196 40.371 C 199.680 43.764,205.353 43.859,208.244 40.522 C 209.485 39.090,212.300 37.305,214.500 36.555 C 216.700 35.806,218.645 34.474,218.823 33.596 C 219.201 31.731,216.929 31.471,215.217 33.183 C 214.566 33.834,213.718 34.051,213.332 33.665 C 212.946 33.279,214.262 31.284,216.256 29.232 C 219.138 26.266,219.679 25.141,218.892 23.750 C 217.670 21.593,217.411 21.607,212.698 24.095 M129.058 31.430 C 128.109 32.573,128.277 33.078,129.893 33.943 C 131.544 34.827,132.107 34.668,132.958 33.078 C 133.531 32.008,134.000 30.877,134.000 30.566 C 134.000 29.393,130.196 30.059,129.058 31.430 M134.498 33.005 C 134.148 34.108,132.728 36.358,131.342 38.005 C 129.350 40.372,129.158 41.000,130.426 41.000 C 131.308 41.000,132.921 39.538,134.011 37.750 C 135.101 35.962,135.994 35.163,135.996 35.972 C 135.999 37.066,136.546 36.898,138.121 35.323 C 139.288 34.156,139.937 32.706,139.562 32.101 C 138.436 30.279,135.179 30.861,134.498 33.005 M295.961 39.093 C 294.863 41.745,294.288 42.108,291.931 41.636 C 290.077 41.265,289.003 41.550,288.634 42.511 C 287.953 44.285,289.306 45.204,291.410 44.396 C 292.284 44.061,293.000 44.264,293.000 44.848 C 293.000 46.288,286.850 47.346,283.173 46.538 C 279.632 45.760,278.536 46.983,280.440 49.587 C 281.679 51.282,282.173 51.339,285.413 50.168 C 288.512 49.047,289.227 49.084,290.576 50.433 C 291.998 51.856,291.954 52.000,290.096 52.000 C 288.339 52.000,288.138 52.440,288.673 55.114 C 289.241 57.955,289.107 58.169,287.148 57.547 C 285.562 57.044,285.000 57.284,285.000 58.464 C 285.000 60.609,282.330 61.519,280.499 59.999 C 279.313 59.015,278.906 59.081,278.423 60.339 C 276.919 64.261,282.847 64.959,285.606 61.185 C 286.283 60.260,287.120 59.786,287.466 60.133 C 287.812 60.479,287.399 61.458,286.548 62.310 C 285.696 63.161,285.000 64.564,285.000 65.429 C 285.000 68.114,287.934 67.156,289.972 63.806 C 291.969 60.521,293.181 61.269,292.719 65.500 C 292.444 68.011,294.893 68.136,296.391 65.687 C 297.293 64.213,297.066 63.519,295.174 61.965 C 293.894 60.915,293.110 59.632,293.430 59.113 C 293.750 58.595,293.447 57.943,292.756 57.664 C 291.894 57.317,291.974 57.133,293.009 57.079 C 293.840 57.036,295.122 56.035,295.858 54.855 C 297.016 53.001,296.992 52.789,295.682 53.292 C 293.878 53.984,292.584 51.375,294.227 50.360 C 294.980 49.894,294.710 49.379,293.434 48.841 C 291.227 47.913,300.605 48.441,305.750 49.536 C 308.359 50.091,309.000 49.909,309.000 48.613 C 309.000 47.431,308.049 47.000,305.441 47.000 C 303.323 47.000,302.132 46.595,302.500 46.000 C 302.840 45.450,303.991 45.000,305.059 45.000 C 306.361 45.000,307.000 44.312,307.000 42.912 C 307.000 41.030,306.605 40.891,303.000 41.500 C 299.240 42.135,297.530 41.027,299.956 39.527 C 301.236 38.736,300.118 36.000,298.514 36.000 C 297.815 36.000,296.666 37.392,295.961 39.093 M137.000 39.941 C 137.000 41.009,136.502 42.190,135.893 42.566 C 135.148 43.027,135.006 42.555,135.460 41.125 C 136.315 38.432,134.880 38.361,133.223 41.015 C 132.303 42.487,131.316 42.866,129.552 42.424 C 127.413 41.887,127.209 42.084,127.751 44.159 C 128.891 48.527,132.235 50.437,133.404 47.389 C 133.847 46.236,133.593 45.942,132.511 46.357 C 130.772 47.025,130.447 45.460,132.112 44.431 C 134.255 43.106,134.771 46.315,133.150 50.886 C 131.664 55.075,131.484 55.247,131.190 52.750 C 130.675 48.366,129.428 49.571,129.638 54.250 C 129.763 57.058,129.659 57.482,129.330 55.500 C 129.057 53.850,128.158 51.749,127.334 50.831 C 126.510 49.912,125.971 48.112,126.137 46.831 C 126.531 43.783,125.351 42.000,122.941 42.000 C 120.634 42.000,120.495 42.782,122.423 44.921 C 123.991 46.662,126.620 53.233,128.310 59.635 C 129.297 63.374,132.444 66.889,133.689 65.644 C 133.961 65.372,133.593 63.516,132.871 61.520 C 131.976 59.046,131.891 57.669,132.602 57.195 C 133.176 56.813,134.013 55.600,134.461 54.500 L 135.275 52.500 135.888 54.500 C 137.578 60.022,142.000 63.200,142.000 58.893 C 142.000 57.273,142.404 56.956,143.750 57.522 C 144.713 57.926,146.512 58.477,147.750 58.745 C 151.117 59.475,150.631 56.378,147.091 54.547 C 145.171 53.554,143.595 51.505,142.455 48.521 C 140.585 43.625,139.659 43.039,138.080 45.750 C 137.258 47.162,137.055 47.205,137.030 45.973 C 137.014 45.132,137.701 43.444,138.558 42.221 C 140.089 40.034,139.792 38.000,137.941 38.000 C 137.423 38.000,137.000 38.873,137.000 39.941 M298.000 44.500 C 298.000 45.325,297.270 46.000,296.378 46.000 C 295.049 46.000,294.980 45.729,296.000 44.500 C 296.685 43.675,297.415 43.000,297.622 43.000 C 297.830 43.000,298.000 43.675,298.000 44.500 M303.000 43.393 C 303.000 43.609,302.325 44.045,301.500 44.362 C 300.675 44.678,300.000 44.501,300.000 43.969 C 300.000 43.436,300.675 43.000,301.500 43.000 C 302.325 43.000,303.000 43.177,303.000 43.393 M140.000 49.500 C 140.000 50.325,140.900 51.900,142.000 53.000 C 144.204 55.204,144.485 56.000,143.057 56.000 C 142.538 56.000,141.326 54.667,140.363 53.038 C 139.028 50.778,138.304 50.333,137.307 51.160 C 135.667 52.521,135.575 50.825,137.200 49.200 C 138.833 47.567,140.000 47.692,140.000 49.500 M295.500 50.598 C 293.596 52.060,293.663 52.118,296.923 51.817 C 298.806 51.642,300.531 50.938,300.756 50.250 C 301.327 48.511,297.926 48.737,295.500 50.598 M178.000 51.965 C 115.192 63.714,64.252 114.615,51.333 178.536 C 48.515 192.478,48.789 228.766,51.818 242.749 C 59.839 279.785,78.589 310.284,108.500 334.946 C 128.291 351.265,153.184 362.726,179.500 367.635 C 194.623 370.456,227.649 370.210,241.749 367.171 C 274.528 360.107,300.311 345.892,324.064 321.787 C 336.378 309.291,345.396 296.726,352.979 281.500 C 360.300 266.799,364.433 254.251,367.143 238.500 C 368.935 228.088,369.144 223.655,368.722 205.000 C 368.302 186.435,367.888 182.066,365.686 173.000 C 357.915 140.995,344.376 117.257,320.858 94.407 C 296.956 71.184,269.346 56.958,237.619 51.522 C 224.825 49.330,190.736 49.583,178.000 51.965 M241.077 56.883 C 255.579 60.044,265.263 63.440,278.736 70.090 C 321.858 91.376,351.702 130.081,362.214 178.352 C 364.101 187.020,364.423 191.564,364.423 209.500 C 364.423 227.389,364.099 231.991,362.231 240.565 C 359.128 254.806,355.707 264.804,349.517 277.729 C 334.999 308.039,309.439 334.061,279.552 348.958 C 256.726 360.336,236.080 365.198,210.000 365.340 C 193.338 365.430,183.945 364.299,169.051 360.409 C 113.225 345.829,69.346 300.299,56.948 244.089 C 49.237 209.131,53.809 171.289,69.522 140.000 C 91.733 95.772,133.055 64.823,181.659 56.013 C 196.514 53.320,226.764 53.763,241.077 56.883 M204.223 73.557 C 202.919 74.470,202.000 76.162,202.000 77.650 C 202.000 79.346,201.337 80.361,200.000 80.710 C 197.994 81.235,197.116 85.000,199.000 85.000 C 199.550 85.000,200.000 85.598,200.000 86.329 C 200.000 87.061,199.010 87.623,197.800 87.579 C 196.449 87.531,195.144 88.400,194.416 89.834 C 192.605 93.403,191.504 94.176,187.080 94.985 C 183.934 95.561,183.000 95.419,183.000 94.366 C 183.000 93.615,182.325 93.000,181.500 93.000 C 180.593 93.000,180.000 92.073,180.000 90.655 C 180.000 87.884,177.141 85.000,174.394 85.000 C 171.300 85.000,168.000 87.868,168.000 90.557 C 168.000 92.062,167.424 93.000,166.500 93.000 C 165.667 93.000,165.000 93.889,165.000 95.000 C 165.000 96.100,165.468 97.000,166.040 97.000 C 166.700 97.000,166.975 100.017,166.790 105.250 L 166.500 113.500 163.500 113.659 C 161.485 113.765,161.239 113.660,162.750 113.339 C 164.839 112.895,165.000 112.328,165.000 105.430 L 165.000 98.000 161.750 98.022 C 158.761 98.042,154.361 99.799,148.000 103.511 C 146.625 104.314,144.037 104.977,142.250 104.985 C 139.614 104.997,139.000 104.605,139.000 102.906 C 139.000 101.688,138.203 100.604,137.092 100.314 C 136.043 100.040,134.962 98.962,134.689 97.920 C 133.530 93.488,124.524 93.365,122.539 97.753 C 122.011 98.921,120.774 100.087,119.789 100.345 C 117.535 100.934,117.276 106.000,119.500 106.000 C 120.433 106.000,121.000 106.944,121.000 108.500 C 121.000 109.875,120.487 111.000,119.860 111.000 C 118.345 111.000,116.072 114.077,116.032 116.180 C 116.013 117.149,115.047 117.996,113.750 118.180 C 111.879 118.446,111.485 119.150,111.414 122.364 C 111.364 124.575,111.930 126.713,112.735 127.364 C 117.923 131.551,117.632 129.797,117.859 158.245 C 118.061 183.488,117.976 184.873,116.194 185.438 C 111.702 186.864,109.943 190.375,108.960 199.881 C 107.049 218.352,102.515 223.099,85.503 224.437 C 70.423 225.623,62.657 231.685,62.551 242.352 C 62.456 251.923,55.475 251.000,127.962 251.000 L 191.987 251.000 191.352 234.750 C 191.002 225.813,191.045 213.718,191.446 207.874 L 192.176 197.247 196.338 196.369 C 200.259 195.542,200.500 195.289,200.500 191.996 L 200.500 188.500 196.000 188.817 C 171.199 190.565,149.360 209.473,147.857 230.501 L 147.500 235.500 151.650 235.803 C 155.138 236.057,155.990 236.561,156.981 238.954 C 158.478 242.569,161.549 245.455,166.557 247.953 L 170.500 249.920 155.250 249.960 L 140.000 250.000 140.000 242.865 C 140.000 236.631,140.301 235.450,142.384 233.520 C 143.815 232.194,145.212 229.238,145.880 226.122 C 146.492 223.269,147.895 219.167,148.997 217.007 C 151.609 211.885,151.524 208.803,148.596 202.596 C 145.902 196.886,145.714 196.065,145.882 190.719 C 145.965 188.068,146.523 186.769,147.750 186.374 C 154.917 184.066,160.424 181.329,163.916 178.340 L 168.000 174.844 168.000 136.922 L 168.000 99.000 170.573 99.000 C 172.488 99.000,173.059 98.552,172.805 97.250 C 172.559 95.991,171.697 95.590,169.731 95.822 C 168.229 95.998,167.000 95.661,167.000 95.072 C 167.000 94.482,167.675 94.000,168.500 94.000 C 169.325 94.000,170.000 93.550,170.000 93.000 C 170.000 92.450,171.800 92.000,174.000 92.000 C 176.200 92.000,178.000 92.450,178.000 93.000 C 178.000 93.550,178.675 94.000,179.500 94.000 C 180.325 94.000,181.000 94.450,181.000 95.000 C 181.000 95.550,179.650 96.000,178.000 96.000 C 176.000 96.000,175.000 96.500,175.000 97.500 C 175.000 98.433,175.944 99.000,177.500 99.000 L 180.000 99.000 180.000 135.000 L 180.000 171.000 208.500 171.000 L 237.000 171.000 237.000 135.000 C 237.000 99.667,237.037 99.000,239.000 99.000 C 240.111 99.000,241.000 98.333,241.000 97.500 C 241.000 96.500,240.000 96.000,238.000 96.000 C 236.350 96.000,235.000 95.550,235.000 95.000 C 235.000 94.450,235.675 94.000,236.500 94.000 C 237.325 94.000,238.000 93.550,238.000 93.000 C 238.000 92.450,240.025 92.000,242.500 92.000 C 244.975 92.000,247.000 92.450,247.000 93.000 C 247.000 93.550,247.675 94.000,248.500 94.000 C 249.325 94.000,250.000 94.450,250.000 95.000 C 250.000 95.550,248.650 96.000,247.000 96.000 C 245.000 96.000,244.000 96.500,244.000 97.500 C 244.000 98.333,244.889 99.000,246.000 99.000 C 247.965 99.000,248.000 99.667,248.000 136.896 L 248.000 174.793 251.513 177.878 C 255.683 181.539,258.692 183.138,265.750 185.445 L 271.000 187.161 271.000 191.527 C 271.000 194.252,270.070 197.643,268.527 200.546 C 264.830 207.498,264.460 211.020,266.918 215.839 C 268.068 218.094,269.674 222.540,270.487 225.720 C 271.538 229.832,272.850 232.255,275.033 234.116 C 277.944 236.596,278.087 237.061,277.801 243.116 L 277.500 249.500 261.500 249.725 C 246.380 249.938,245.693 249.866,249.000 248.420 C 253.185 246.590,257.640 242.532,259.615 238.750 C 260.815 236.452,261.705 236.000,265.026 236.000 C 268.881 236.000,269.000 235.898,269.000 232.589 C 269.000 227.372,265.751 218.078,261.730 211.793 C 254.938 201.175,240.068 192.061,225.373 189.509 C 221.077 188.763,217.211 188.370,216.781 188.635 C 216.352 188.901,216.000 190.580,216.000 192.367 C 216.000 195.375,216.315 195.686,220.250 196.558 L 224.500 197.500 225.317 205.000 C 226.224 213.325,225.608 246.503,224.495 249.250 C 223.824 250.906,227.278 251.000,288.786 251.000 C 361.562 251.000,355.000 251.755,355.000 243.386 C 355.000 231.641,347.946 225.732,332.418 224.470 C 322.011 223.625,318.989 222.616,315.220 218.727 C 311.188 214.567,309.000 208.276,309.000 200.842 C 309.000 192.857,307.020 188.454,302.449 186.274 L 298.788 184.528 299.150 162.764 C 299.355 150.506,299.126 141.000,298.626 141.000 C 298.139 141.000,297.980 138.868,298.274 136.262 C 298.693 132.548,299.477 130.965,301.904 128.939 C 304.459 126.806,305.000 125.624,305.000 122.177 C 305.000 118.667,304.681 118.000,303.000 118.000 C 301.656 118.000,301.000 117.333,301.000 115.969 C 301.000 114.851,300.328 113.679,299.506 113.364 C 298.684 113.048,298.260 112.388,298.565 111.895 C 298.869 111.403,298.416 111.000,297.559 111.000 C 295.522 111.000,295.472 106.417,297.500 105.638 C 298.325 105.322,299.000 104.546,299.000 103.914 C 299.000 102.467,292.082 95.569,289.778 94.719 C 287.296 93.804,282.183 95.848,281.490 98.032 C 281.164 99.058,280.021 100.176,278.949 100.516 C 277.877 100.856,277.000 102.004,277.000 103.067 C 277.000 106.174,271.282 105.569,265.446 101.844 C 262.340 99.861,258.749 98.514,255.794 98.221 L 251.089 97.754 250.746 105.627 L 250.402 113.500 250.201 105.250 C 250.080 100.283,250.398 97.000,251.000 97.000 C 251.550 97.000,252.000 96.100,252.000 95.000 C 252.000 93.900,251.338 93.000,250.529 93.000 C 249.708 93.000,248.685 91.563,248.216 89.752 C 246.579 83.437,237.938 83.558,236.667 89.914 C 236.301 91.743,235.429 93.000,234.525 93.000 C 233.686 93.000,233.000 93.633,233.000 94.406 C 233.000 95.211,232.251 95.665,231.250 95.467 C 224.272 94.086,223.829 93.836,222.421 90.464 C 221.458 88.160,220.308 87.000,218.987 87.000 C 217.181 87.000,217.000 87.684,217.000 94.500 L 217.000 102.000 224.000 102.000 C 227.850 102.000,231.338 102.112,231.750 102.250 C 232.162 102.388,232.642 101.263,232.816 99.750 C 233.274 95.774,235.000 96.366,235.000 100.500 L 235.000 104.000 225.500 104.000 L 216.000 104.000 216.000 94.500 C 216.000 88.833,216.404 85.000,217.000 85.000 C 217.550 85.000,218.000 84.100,218.000 83.000 C 218.000 81.889,217.333 81.000,216.500 81.000 C 215.675 81.000,214.966 80.438,214.923 79.750 C 214.493 72.711,209.530 69.839,204.223 73.557 M211.800 74.200 C 213.955 76.355,213.080 77.000,208.000 77.000 C 202.879 77.000,201.643 75.890,204.750 74.080 C 207.132 72.693,210.348 72.748,211.800 74.200 M213.000 81.000 C 213.000 81.550,213.675 82.000,214.500 82.000 C 215.325 82.000,216.000 82.450,216.000 83.000 C 216.000 83.550,214.650 84.000,213.000 84.000 C 211.000 84.000,210.000 84.500,210.000 85.500 C 210.000 86.333,210.889 87.000,212.000 87.000 C 213.867 87.000,214.000 87.667,214.000 97.000 L 214.000 107.000 208.000 107.000 L 202.000 107.000 202.000 97.000 L 202.000 87.000 204.500 87.000 C 206.056 87.000,207.000 86.433,207.000 85.500 C 207.000 84.452,205.944 84.000,203.500 84.000 C 201.575 84.000,200.000 83.550,200.000 83.000 C 200.000 82.450,200.675 82.000,201.500 82.000 C 202.325 82.000,203.000 81.550,203.000 81.000 C 203.000 80.450,205.250 80.000,208.000 80.000 C 210.750 80.000,213.000 80.450,213.000 81.000 M177.926 87.411 C 179.364 89.143,178.575 89.606,173.750 89.863 C 171.051 90.007,170.000 89.657,170.000 88.615 C 170.000 85.954,175.965 85.048,177.926 87.411 M246.000 87.500 C 247.349 89.125,247.298 89.147,241.750 89.358 C 237.755 89.509,237.287 89.113,239.200 87.200 C 240.863 85.537,244.505 85.698,246.000 87.500 M64.000 90.000 C 64.000 90.550,63.802 91.000,63.559 91.000 C 63.316 91.000,62.840 90.550,62.500 90.000 C 62.160 89.450,62.359 89.000,62.941 89.000 C 63.523 89.000,64.000 89.450,64.000 90.000 M68.242 92.532 C 67.048 94.665,65.504 92.735,66.444 90.285 C 66.886 89.134,67.375 88.975,68.136 89.736 C 68.845 90.445,68.881 91.390,68.242 92.532 M198.000 95.000 L 198.000 101.000 191.500 101.000 C 185.667 101.000,185.000 100.795,185.000 99.000 C 185.000 97.651,185.667 97.000,187.050 97.000 C 190.465 97.000,194.933 94.114,195.594 91.482 C 196.717 87.006,198.000 88.881,198.000 95.000 M224.881 95.936 C 225.974 96.521,227.798 97.000,228.934 97.000 C 230.333 97.000,231.000 97.645,231.000 99.000 C 231.000 100.778,230.333 101.000,225.000 101.000 L 219.000 101.000 219.004 94.750 L 219.007 88.500 220.950 91.686 C 222.019 93.439,223.787 95.351,224.881 95.936 M335.000 90.815 C 335.000 91.904,336.399 93.297,338.500 94.299 C 343.242 96.560,343.103 98.438,338.250 97.663 C 335.888 97.285,333.712 96.084,332.371 94.418 C 330.853 92.530,330.103 92.163,329.757 93.136 C 328.524 96.593,334.237 101.000,339.950 101.000 C 343.646 101.000,343.696 101.384,340.500 105.182 C 337.028 109.309,337.205 112.527,340.978 113.842 C 343.830 114.837,346.141 113.823,344.016 112.510 C 342.163 111.365,343.244 103.476,345.721 100.065 C 345.895 99.826,347.808 101.360,349.974 103.474 C 353.301 106.723,354.150 107.120,355.455 106.037 C 357.851 104.049,357.297 102.503,353.816 101.457 C 349.023 100.017,349.351 98.401,354.710 97.054 C 359.787 95.778,363.000 93.565,363.000 91.345 C 363.000 89.481,362.436 89.591,354.163 93.067 L 346.864 96.134 343.432 93.516 C 341.544 92.076,340.000 90.471,340.000 89.949 C 340.000 89.427,338.875 89.000,337.500 89.000 C 335.752 89.000,335.000 89.546,335.000 90.815 M72.000 93.000 C 72.000 93.550,71.550 94.000,71.000 94.000 C 70.450 94.000,70.000 93.550,70.000 93.000 C 70.000 92.450,70.450 92.000,71.000 92.000 C 71.550 92.000,72.000 92.450,72.000 93.000 M132.139 96.967 L 134.500 98.933 128.500 98.933 L 122.500 98.933 124.861 96.967 C 126.159 95.885,127.797 95.000,128.500 95.000 C 129.203 95.000,130.841 95.885,132.139 96.967 M290.435 95.975 C 294.566 97.546,293.395 99.000,288.000 99.000 C 281.584 99.000,281.440 97.204,287.685 95.063 C 287.787 95.029,289.024 95.439,290.435 95.975 M184.000 99.500 C 184.000 101.958,184.133 102.000,192.000 102.000 C 196.667 102.000,200.000 102.417,200.000 103.000 C 200.000 103.596,196.167 104.000,190.500 104.000 L 181.000 104.000 181.000 100.500 C 181.000 98.056,181.452 97.000,182.500 97.000 C 183.433 97.000,184.000 97.944,184.000 99.500 M75.000 99.441 C 75.000 99.684,74.550 100.160,74.000 100.500 C 73.450 100.840,73.000 100.641,73.000 100.059 C 73.000 99.477,73.450 99.000,74.000 99.000 C 74.550 99.000,75.000 99.198,75.000 99.441 M164.000 105.559 L 164.000 111.000 152.000 111.000 C 145.400 111.000,140.000 110.812,140.000 110.582 C 140.000 110.352,139.750 109.513,139.445 108.718 C 139.025 107.622,140.102 107.111,143.904 106.607 C 146.662 106.241,149.190 105.502,149.522 104.964 C 150.944 102.664,161.328 98.697,163.250 99.719 C 163.662 99.939,164.000 102.566,164.000 105.559 M264.794 103.471 C 266.832 104.814,270.413 106.215,272.750 106.584 C 275.997 107.097,277.000 107.697,277.000 109.128 C 277.000 110.853,276.060 111.000,265.000 111.000 L 253.000 111.000 253.000 105.106 L 253.000 99.213 257.044 100.121 C 259.268 100.621,262.756 102.128,264.794 103.471 M131.750 101.923 C 134.637 101.966,137.000 102.450,137.000 103.000 C 137.000 103.593,133.438 103.987,128.250 103.968 C 120.621 103.940,119.732 103.761,121.308 102.565 C 122.303 101.811,123.878 101.341,124.808 101.521 C 125.739 101.700,128.863 101.881,131.750 101.923 M296.181 102.781 C 297.140 103.740,295.380 103.993,287.950 103.968 C 280.260 103.942,278.801 103.707,280.115 102.707 C 282.215 101.107,294.565 101.165,296.181 102.781 M134.000 108.000 C 134.000 110.970,133.944 111.000,128.500 111.000 C 123.056 111.000,123.000 110.970,123.000 108.000 C 123.000 105.030,123.056 105.000,128.500 105.000 C 133.944 105.000,134.000 105.030,134.000 108.000 M293.816 108.250 C 294.131 110.983,294.094 111.000,288.066 111.000 C 282.378 111.000,282.000 110.855,282.000 108.667 C 282.000 105.315,282.821 104.875,288.462 105.205 C 293.129 105.478,293.523 105.702,293.816 108.250 M138.000 108.559 C 138.000 110.010,137.567 110.851,137.000 110.500 C 136.450 110.160,136.000 109.009,136.000 107.941 C 136.000 106.873,136.450 106.000,137.000 106.000 C 137.550 106.000,138.000 107.152,138.000 108.559 M200.000 107.000 C 200.000 107.583,203.333 108.000,208.000 108.000 C 212.667 108.000,216.000 107.583,216.000 107.000 C 216.000 106.404,219.833 106.000,225.500 106.000 L 235.000 106.000 235.000 137.500 L 235.000 169.000 229.250 168.825 C 224.263 168.674,224.064 168.600,227.750 168.268 L 232.000 167.885 232.000 154.993 L 232.000 142.102 228.750 139.669 C 221.432 134.191,219.108 133.500,208.000 133.500 C 196.892 133.500,194.568 134.191,187.250 139.669 L 184.000 142.102 184.000 154.996 L 184.000 167.890 188.750 168.294 C 192.561 168.617,192.313 168.677,187.500 168.598 L 181.500 168.500 181.236 137.250 L 180.972 106.000 190.486 106.000 C 196.162 106.000,200.000 106.403,200.000 107.000 M279.693 109.731 C 279.439 110.704,279.215 110.150,279.195 108.500 C 279.175 106.850,279.382 106.054,279.656 106.731 C 279.930 107.408,279.947 108.758,279.693 109.731 M137.000 113.000 C 137.000 113.588,133.500 114.000,128.500 114.000 C 123.500 114.000,120.000 113.588,120.000 113.000 C 120.000 112.412,123.500 112.000,128.500 112.000 C 133.500 112.000,137.000 112.412,137.000 113.000 M184.000 122.000 C 184.000 127.500,184.153 132.000,184.340 132.000 C 184.527 132.000,188.199 131.100,192.500 130.000 C 196.801 128.900,203.551 128.000,207.500 128.000 C 211.449 128.000,218.199 128.900,222.500 130.000 C 226.801 131.100,230.473 132.000,230.660 132.000 C 230.847 132.000,231.000 127.500,231.000 122.000 L 231.000 112.000 207.500 112.000 L 184.000 112.000 184.000 122.000 M296.500 113.000 C 296.895 113.639,293.824 114.000,288.000 114.000 C 282.176 114.000,279.105 113.639,279.500 113.000 C 279.840 112.450,283.665 112.000,288.000 112.000 C 292.335 112.000,296.160 112.450,296.500 113.000 M156.280 113.731 C 153.959 113.940,149.909 113.943,147.280 113.736 C 144.651 113.530,146.550 113.358,151.500 113.355 C 156.450 113.352,158.601 113.521,156.280 113.731 M173.000 140.500 C 173.000 155.808,173.211 168.122,173.469 167.864 C 174.145 167.188,174.236 113.903,173.563 113.229 C 173.253 112.920,173.000 125.192,173.000 140.500 M229.793 121.878 C 230.083 130.195,230.068 130.251,227.793 129.589 C 212.299 125.083,201.434 125.086,186.750 129.597 C 185.186 130.078,185.000 129.297,185.000 122.234 C 185.000 117.889,185.309 114.025,185.686 113.648 C 186.063 113.271,196.075 113.083,207.936 113.231 L 229.500 113.500 229.793 121.878 M242.440 140.500 C 242.440 155.900,242.579 162.060,242.748 154.189 C 242.917 146.319,242.917 133.719,242.747 126.189 C 242.578 118.660,242.439 125.100,242.440 140.500 M267.750 113.735 C 265.137 113.941,260.863 113.941,258.250 113.735 C 255.637 113.529,257.775 113.360,263.000 113.360 C 268.225 113.360,270.363 113.529,267.750 113.735 M140.000 117.533 L 140.000 120.066 128.750 119.783 C 119.577 119.552,117.488 119.223,117.435 118.000 C 117.314 115.204,118.106 115.000,129.059 115.000 L 140.000 115.000 140.000 117.533 M167.000 117.500 L 167.000 120.000 154.500 120.000 L 142.000 120.000 142.000 117.500 L 142.000 115.000 154.500 115.000 L 167.000 115.000 167.000 117.500 M275.000 117.500 L 275.000 120.000 262.559 120.000 C 250.139 120.000,248.217 119.483,249.380 116.452 C 249.826 115.290,252.436 115.000,262.469 115.000 L 275.000 115.000 275.000 117.500 M299.000 117.500 L 299.000 120.000 288.000 120.000 L 277.000 120.000 277.000 117.500 L 277.000 115.000 288.000 115.000 L 299.000 115.000 299.000 117.500 M116.418 120.607 C 117.497 121.021,118.000 122.490,118.000 125.229 C 118.000 129.166,117.956 129.215,115.750 127.758 C 114.385 126.857,113.377 125.039,113.187 123.137 C 112.871 119.981,113.502 119.488,116.418 120.607 M304.000 122.812 C 304.000 124.777,303.096 126.292,301.000 127.842 L 298.000 130.060 298.000 126.080 C 298.000 123.344,298.547 121.781,299.750 121.080 C 302.730 119.344,304.000 119.861,304.000 122.812 M136.820 123.228 C 136.518 125.328,136.038 125.453,128.500 125.382 C 121.103 125.313,120.476 125.145,120.180 123.154 C 119.874 121.090,120.223 121.000,128.500 121.000 C 136.863 121.000,137.129 121.071,136.820 123.228 M167.000 126.500 L 167.000 132.000 153.000 132.000 C 145.300 132.000,138.955 131.662,138.899 131.250 C 138.730 129.988,138.707 125.626,138.858 123.250 C 138.998 121.031,139.190 121.000,153.000 121.000 L 167.000 121.000 167.000 126.500 M278.000 126.527 L 278.000 132.055 263.750 131.777 L 249.500 131.500 249.198 126.250 L 248.895 121.000 263.448 121.000 L 278.000 121.000 278.000 126.527 M296.300 122.341 C 296.583 123.078,296.519 124.091,296.157 124.591 C 295.409 125.626,279.999 125.856,280.000 124.832 C 280.000 124.464,279.727 123.452,279.393 122.582 C 278.869 121.216,279.946 121.000,287.286 121.000 C 293.470 121.000,295.926 121.365,296.300 122.341 M140.829 126.000 L 140.447 130.000 152.724 130.000 L 165.000 130.000 165.000 126.000 L 165.000 122.000 153.105 122.000 L 141.210 122.000 140.829 126.000 M251.667 122.667 C 251.300 123.033,251.000 124.833,251.000 126.667 L 251.000 130.000 263.500 130.000 L 276.000 130.000 276.000 126.000 L 276.000 122.000 264.167 122.000 C 257.658 122.000,252.033 122.300,251.667 122.667 M163.816 126.250 L 164.133 129.000 153.066 129.000 C 142.140 129.000,142.000 128.971,142.000 126.667 C 142.000 125.383,142.315 124.019,142.699 123.634 C 143.084 123.249,147.922 123.062,153.449 123.217 L 163.500 123.500 163.816 126.250 M273.816 126.250 L 274.133 129.000 263.566 129.000 L 253.000 129.000 253.000 125.965 L 253.000 122.930 263.250 123.215 L 273.500 123.500 273.816 126.250 M123.189 132.750 L 123.378 138.500 123.739 132.750 L 124.100 127.000 128.050 127.000 L 132.000 127.000 132.189 132.750 L 132.378 138.500 132.739 132.750 C 133.047 127.839,133.384 127.000,135.050 127.000 C 136.798 127.000,137.000 127.726,137.000 134.000 L 137.000 141.000 128.500 141.000 L 120.000 141.000 120.000 134.000 C 120.000 128.444,120.310 127.000,121.500 127.000 C 122.637 127.000,123.046 128.390,123.189 132.750 M284.189 132.750 L 284.378 138.500 284.739 132.750 L 285.100 127.000 288.550 127.000 L 292.000 127.000 292.189 132.750 L 292.378 138.500 292.739 132.750 C 293.036 128.024,293.419 127.000,294.891 127.000 C 296.445 127.000,296.671 127.895,296.591 133.750 L 296.500 140.500 288.000 140.500 L 279.500 140.500 279.411 135.500 C 279.293 128.816,279.871 127.000,282.117 127.000 C 283.721 127.000,284.028 127.852,284.189 132.750 M167.000 153.132 L 167.000 172.264 163.392 175.667 C 159.074 179.739,153.920 182.488,147.634 184.070 L 143.000 185.237 143.000 191.493 C 143.000 196.380,143.572 198.772,145.617 202.431 C 148.761 208.056,148.896 212.811,146.087 219.000 C 144.963 221.475,144.034 224.688,144.022 226.139 C 144.010 227.591,143.174 229.798,142.165 231.045 C 140.374 233.256,140.314 232.459,139.666 197.905 C 139.302 178.432,139.002 156.088,139.002 148.250 L 139.000 134.000 153.000 134.000 L 167.000 134.000 167.000 153.132 M277.887 184.072 L 278.137 234.144 276.102 233.055 C 274.917 232.420,273.630 230.200,273.017 227.733 C 272.439 225.405,271.074 221.241,269.983 218.481 C 267.355 211.830,267.498 207.420,270.512 202.148 C 272.436 198.782,273.000 196.374,273.000 191.517 L 273.000 185.237 268.366 184.070 C 262.297 182.542,257.121 179.850,253.185 176.173 L 250.000 173.198 250.000 153.599 L 250.000 134.000 263.819 134.000 L 277.638 134.000 277.887 184.072 M213.655 136.000 C 214.726 136.000,215.018 137.428,214.881 142.000 L 214.701 148.000 207.850 148.000 L 201.000 148.000 201.000 142.066 C 201.000 136.369,201.110 136.115,203.750 135.682 C 205.262 135.434,207.794 135.405,209.375 135.616 C 210.956 135.827,212.882 136.000,213.655 136.000 M198.374 142.155 C 198.304 144.545,198.192 146.950,198.124 147.500 C 198.027 148.295,192.856 148.549,186.750 148.060 C 184.766 147.901,186.362 143.826,189.280 141.600 C 192.574 139.087,197.068 136.986,198.000 137.522 C 198.275 137.680,198.443 139.765,198.374 142.155 M225.500 140.870 C 227.740 142.390,229.641 144.555,229.820 145.792 C 230.121 147.878,229.775 148.000,223.570 148.000 L 217.000 148.000 217.000 142.433 C 217.000 137.134,217.109 136.896,219.250 137.511 C 220.488 137.867,223.300 139.378,225.500 140.870 M140.225 153.659 L 140.500 169.319 152.500 169.271 L 164.500 169.223 164.775 153.612 L 165.051 138.000 152.500 138.000 L 139.949 138.000 140.225 153.659 M251.225 153.750 L 251.500 169.500 263.500 169.500 L 275.500 169.500 275.775 153.750 L 276.051 138.000 263.500 138.000 L 250.949 138.000 251.225 153.750 M148.000 144.500 C 148.000 148.833,147.889 149.000,145.000 149.000 C 142.111 149.000,142.000 148.833,142.000 144.500 C 142.000 140.167,142.111 140.000,145.000 140.000 C 147.889 140.000,148.000 140.167,148.000 144.500 M156.000 144.563 C 156.000 149.109,155.988 149.126,152.750 148.813 C 149.662 148.516,149.495 148.288,149.392 144.250 C 149.286 140.072,149.341 140.000,152.642 140.000 C 155.962 140.000,156.000 140.052,156.000 144.563 M163.000 144.500 C 163.000 148.833,162.889 149.000,160.000 149.000 C 157.111 149.000,157.000 148.833,157.000 144.500 C 157.000 140.167,157.111 140.000,160.000 140.000 C 162.889 140.000,163.000 140.167,163.000 144.500 M259.000 144.500 C 259.000 148.833,258.889 149.000,256.000 149.000 C 253.111 149.000,253.000 148.833,253.000 144.500 C 253.000 140.167,253.111 140.000,256.000 140.000 C 258.889 140.000,259.000 140.167,259.000 144.500 M267.000 144.500 C 267.000 148.976,266.981 149.000,263.500 149.000 C 260.019 149.000,260.000 148.976,260.000 144.500 C 260.000 140.024,260.019 140.000,263.500 140.000 C 266.981 140.000,267.000 140.024,267.000 144.500 M274.000 144.500 C 274.000 148.833,273.889 149.000,271.000 149.000 C 268.111 149.000,268.000 148.833,268.000 144.500 C 268.000 140.167,268.111 140.000,271.000 140.000 C 273.889 140.000,274.000 140.167,274.000 144.500 M138.000 144.000 C 138.000 145.867,137.333 146.000,128.000 146.000 C 118.667 146.000,118.000 145.867,118.000 144.000 C 118.000 142.133,118.667 142.000,128.000 142.000 C 137.333 142.000,138.000 142.133,138.000 144.000 M298.000 144.000 C 298.000 145.866,297.333 146.000,288.062 146.000 C 278.741 146.000,278.134 145.876,278.275 144.000 C 278.415 142.146,279.142 142.000,288.213 142.000 C 297.333 142.000,298.000 142.136,298.000 144.000 M297.000 149.500 C 297.000 151.981,296.933 152.000,288.000 152.000 C 279.726 152.000,279.000 151.842,279.000 150.039 C 279.000 148.266,279.838 148.046,287.750 147.745 C 292.563 147.561,296.613 147.319,296.750 147.206 C 296.887 147.093,297.000 148.125,297.000 149.500 M138.000 148.418 C 138.000 151.461,136.480 152.000,127.893 152.000 C 119.667 152.000,119.000 151.850,119.000 150.000 C 119.000 148.140,119.667 148.000,128.500 148.000 C 133.725 148.000,138.000 148.188,138.000 148.418 M40.317 151.617 C 39.976 152.506,37.852 154.074,35.598 155.102 L 31.500 156.969 29.312 154.296 C 27.291 151.826,26.909 151.722,24.312 152.925 L 21.500 154.228 24.466 156.364 C 35.269 164.144,42.966 174.484,42.990 181.250 C 42.997 183.117,43.521 184.000,44.624 184.000 C 45.979 184.000,46.166 183.130,45.754 178.750 C 45.483 175.863,44.963 172.801,44.599 171.947 C 44.053 170.666,44.582 170.470,47.625 170.825 C 50.815 171.197,51.221 171.019,50.639 169.501 C 50.268 168.536,50.458 167.153,51.060 166.428 C 52.619 164.549,51.820 160.503,49.886 160.485 C 48.998 160.477,47.632 159.940,46.852 159.292 C 44.332 157.201,42.650 159.357,43.260 163.899 C 43.562 166.154,43.458 168.000,43.027 168.000 C 41.670 168.000,39.850 165.211,40.817 164.613 C 41.952 163.912,41.107 159.000,39.852 159.000 C 39.349 159.000,38.674 159.686,38.352 160.526 C 37.900 161.702,37.450 161.788,36.383 160.903 C 34.105 159.012,34.800 158.000,38.378 158.000 C 42.505 158.000,44.308 156.073,43.435 152.596 C 42.698 149.662,41.242 149.205,40.317 151.617 M148.000 159.000 L 148.000 168.000 145.000 168.000 L 142.000 168.000 142.000 159.667 C 142.000 155.083,142.300 151.033,142.667 150.667 C 143.033 150.300,144.383 150.000,145.667 150.000 C 147.938 150.000,148.000 150.238,148.000 159.000 M156.000 159.063 L 156.000 168.127 152.750 167.813 L 149.500 167.500 149.203 160.094 C 148.835 150.926,149.181 150.000,152.969 150.000 L 156.000 150.000 156.000 159.063 M163.000 159.000 L 163.000 168.000 160.000 168.000 L 157.000 168.000 157.000 159.667 C 157.000 155.083,157.300 151.033,157.667 150.667 C 158.033 150.300,159.383 150.000,160.667 150.000 C 162.938 150.000,163.000 150.238,163.000 159.000 M197.500 150.909 C 198.296 150.981,198.558 157.799,198.051 165.250 C 198.023 165.662,195.300 166.000,192.000 166.000 L 186.000 166.000 186.000 158.583 C 186.000 153.784,186.415 151.028,187.177 150.774 C 188.153 150.449,193.120 150.514,197.500 150.909 M214.500 158.000 L 214.500 165.500 207.750 165.796 L 201.000 166.091 201.000 158.246 L 201.000 150.402 207.750 150.451 L 214.500 150.500 214.500 158.000 M230.000 158.617 L 230.000 166.000 223.500 166.000 L 217.000 166.000 217.000 158.557 L 217.000 151.115 221.250 150.807 C 229.861 150.184,230.000 150.308,230.000 158.617 M258.789 159.250 L 259.078 168.000 256.039 168.000 L 253.000 168.000 253.000 159.667 C 253.000 155.083,253.319 151.014,253.709 150.624 C 254.099 150.235,255.336 150.047,256.459 150.208 C 258.310 150.473,258.527 151.315,258.789 159.250 M266.789 159.250 L 267.078 168.000 263.539 168.000 L 260.000 168.000 260.000 159.667 C 260.000 155.083,260.321 151.013,260.713 150.621 C 261.104 150.229,262.567 150.041,263.963 150.204 C 266.438 150.493,266.507 150.715,266.789 159.250 M274.000 159.000 L 274.000 168.000 271.000 168.000 L 268.000 168.000 268.000 159.667 C 268.000 155.083,268.300 151.033,268.667 150.667 C 269.033 150.300,270.383 150.000,271.667 150.000 C 273.938 150.000,274.000 150.238,274.000 159.000 M123.218 166.250 L 123.437 179.500 123.747 166.250 L 124.058 153.000 128.029 153.000 L 132.000 153.000 132.218 166.250 L 132.437 179.500 132.747 166.250 C 133.038 153.837,133.183 153.000,135.029 153.000 C 136.908 153.000,137.000 153.745,137.000 168.874 L 137.000 184.748 128.250 184.394 L 119.500 184.040 119.323 169.307 C 119.225 161.204,119.364 154.219,119.632 153.787 C 119.899 153.354,120.766 153.000,121.559 153.000 C 122.730 153.000,123.041 155.481,123.218 166.250 M284.218 166.250 L 284.437 179.500 284.747 166.250 L 285.058 153.000 288.529 153.000 L 292.000 153.000 292.218 166.250 L 292.437 179.500 292.747 166.250 C 293.038 153.837,293.183 153.000,295.029 153.000 C 296.906 153.000,297.000 153.743,297.000 168.500 L 297.000 184.000 292.640 184.000 C 290.241 184.000,286.224 184.282,283.713 184.626 L 279.146 185.252 279.114 169.965 C 279.096 161.557,279.314 154.300,279.600 153.839 C 279.885 153.377,280.991 153.000,282.059 153.000 C 283.872 153.000,284.014 153.876,284.218 166.250 M375.446 158.087 C 374.620 159.424,375.752 160.549,378.875 161.495 C 380.389 161.953,381.023 161.847,380.624 161.200 C 380.243 160.584,380.881 160.376,382.249 160.669 L 384.500 161.152 382.139 159.076 C 379.570 156.817,376.510 156.365,375.446 158.087 M384.396 162.169 C 384.116 162.621,385.038 163.516,386.444 164.156 C 389.215 165.419,389.854 167.000,387.594 167.000 C 386.646 167.000,386.371 167.703,386.751 169.156 C 387.138 170.634,386.951 171.088,386.158 170.597 C 385.521 170.204,385.000 169.035,385.000 168.000 C 385.000 165.975,383.277 164.390,382.222 165.444 C 381.868 165.799,382.774 168.319,384.236 171.045 C 387.262 176.686,386.040 177.877,382.822 172.424 C 381.352 169.931,380.476 169.230,379.932 170.109 C 378.878 171.815,376.240 169.668,375.810 166.756 C 375.640 165.601,374.877 164.451,374.115 164.200 C 373.027 163.841,372.875 164.522,373.410 167.372 C 373.954 170.271,373.780 171.000,372.545 171.000 C 371.695 171.000,371.000 170.325,371.000 169.500 C 371.000 167.363,369.702 167.646,368.158 170.118 C 366.378 172.969,367.993 174.477,372.504 174.173 C 374.956 174.008,376.000 174.358,376.000 175.346 C 376.000 176.121,376.751 177.373,377.669 178.128 C 379.183 179.373,379.277 179.197,378.689 176.226 C 378.069 173.094,378.138 173.001,380.270 174.098 C 381.497 174.728,383.740 176.401,385.257 177.816 C 387.231 179.658,388.320 180.080,389.094 179.306 C 389.868 178.532,389.866 178.035,389.087 177.554 C 388.489 177.184,388.000 176.416,388.000 175.846 C 388.000 175.276,389.993 175.978,392.428 177.405 C 394.864 178.832,397.114 180.000,397.428 180.000 C 398.615 180.000,397.924 177.699,395.822 174.654 L 393.645 171.500 396.134 173.748 C 398.237 175.646,398.895 175.797,400.369 174.719 C 401.946 173.566,401.771 173.319,398.557 172.157 C 396.601 171.449,395.000 170.277,395.000 169.552 C 395.000 168.827,394.134 168.007,393.075 167.730 C 391.724 167.377,391.308 167.640,391.682 168.613 C 391.975 169.376,391.683 170.000,391.034 170.000 C 390.384 170.000,390.009 169.213,390.198 168.250 C 390.416 167.147,391.460 166.500,393.022 166.500 C 395.824 166.500,398.000 165.362,398.000 163.896 C 398.000 163.309,396.575 163.177,394.488 163.568 C 391.752 164.082,391.090 163.926,391.495 162.864 C 391.871 161.878,391.030 161.479,388.460 161.423 C 386.504 161.381,384.675 161.716,384.396 162.169 M27.177 164.869 C 26.251 165.457,26.060 166.800,26.539 169.354 C 27.260 173.199,27.895 173.705,29.713 171.887 C 30.908 170.692,33.000 171.475,33.000 173.118 C 33.000 173.668,32.584 173.861,32.075 173.546 C 30.793 172.754,25.873 175.119,26.278 176.333 C 26.459 176.877,28.780 177.955,31.435 178.729 C 36.970 180.343,39.307 179.323,37.329 176.155 C 36.713 175.168,36.444 173.128,36.732 171.620 C 37.149 169.439,36.829 168.768,35.161 168.332 C 34.009 168.031,32.796 166.933,32.466 165.892 C 31.837 163.910,29.425 163.444,27.177 164.869 M48.000 166.000 C 48.000 166.550,47.550 167.000,47.000 167.000 C 46.450 167.000,46.000 166.550,46.000 166.000 C 46.000 165.450,46.450 165.000,47.000 165.000 C 47.550 165.000,48.000 165.450,48.000 166.000 M203.729 168.604 C 203.397 168.936,202.534 168.972,201.813 168.683 C 201.015 168.364,201.252 168.127,202.417 168.079 C 203.471 168.036,204.061 168.272,203.729 168.604 M391.500 172.000 C 391.840 172.550,391.668 173.000,391.118 173.000 C 390.568 173.000,389.840 172.550,389.500 172.000 C 389.160 171.450,389.332 171.000,389.882 171.000 C 390.432 171.000,391.160 171.450,391.500 172.000 M182.000 178.500 L 182.000 185.000 185.289 185.000 C 187.097 185.000,190.342 184.100,192.500 183.000 C 194.658 181.900,197.003 181.000,197.711 181.000 C 198.572 181.000,199.000 179.505,199.000 176.500 L 199.000 172.000 190.500 172.000 L 182.000 172.000 182.000 178.500 M200.667 172.667 C 199.647 173.686,199.874 185.471,200.933 186.550 C 201.446 187.072,202.009 189.300,202.183 191.500 L 202.500 195.500 208.250 195.800 L 214.000 196.100 214.000 191.550 C 214.000 189.047,214.450 187.000,215.000 187.000 C 215.578 187.000,216.000 183.833,216.000 179.500 L 216.000 172.000 208.667 172.000 C 204.633 172.000,201.033 172.300,200.667 172.667 M217.000 175.927 C 217.000 179.725,217.184 179.938,222.621 182.427 C 225.712 183.842,229.537 185.000,231.121 185.000 C 233.998 185.000,234.000 184.995,234.000 178.500 L 234.000 172.000 225.500 172.000 L 217.000 172.000 217.000 175.927 M198.000 176.322 C 198.000 178.128,196.931 179.127,193.180 180.822 C 190.529 182.020,187.379 183.000,186.180 183.000 C 184.263 183.000,184.000 182.457,184.000 178.500 L 184.000 174.000 191.000 174.000 C 197.657 174.000,198.000 174.114,198.000 176.322 M214.000 180.000 C 214.000 183.333,213.556 186.000,213.000 186.000 C 212.450 186.000,212.000 187.800,212.000 190.000 L 212.000 194.000 208.000 194.000 C 204.010 194.000,204.000 193.990,204.000 190.059 C 204.000 187.891,203.550 185.840,203.000 185.500 C 202.450 185.160,202.000 182.434,202.000 179.441 L 202.000 174.000 208.000 174.000 L 214.000 174.000 214.000 180.000 M232.500 178.500 C 232.500 183.464,230.553 184.017,223.719 180.994 C 219.910 179.309,219.000 178.425,219.000 176.408 C 219.000 173.960,219.139 173.915,225.750 174.204 L 232.500 174.500 232.500 178.500 M394.000 175.000 C 394.000 176.253,392.939 176.253,391.000 175.000 C 389.787 174.216,389.931 174.028,391.750 174.015 C 392.988 174.007,394.000 174.450,394.000 175.000 M123.000 189.500 C 121.289 191.322,119.613 192.000,116.826 192.000 C 114.722 192.000,113.000 191.564,113.000 191.032 C 113.000 189.436,118.261 187.083,121.924 187.040 L 125.349 187.000 123.000 189.500 M135.750 187.630 L 138.000 188.233 138.000 218.617 L 138.000 249.000 104.000 249.000 L 70.000 249.000 70.000 244.950 C 70.000 240.145,72.177 235.511,75.194 233.896 C 76.389 233.256,82.007 232.397,87.677 231.987 C 95.819 231.398,99.140 230.677,103.473 228.557 C 112.131 224.321,118.075 215.625,120.212 204.067 C 122.387 192.303,125.067 188.754,133.000 187.130 C 133.275 187.073,134.512 187.299,135.750 187.630 M291.000 189.917 C 294.240 192.202,295.888 195.670,297.010 202.564 C 298.177 209.732,302.237 218.590,306.304 222.839 C 311.873 228.658,318.032 231.087,329.397 231.947 C 334.953 232.367,340.716 233.288,342.202 233.994 C 345.474 235.548,348.000 240.518,348.000 245.401 L 348.000 249.000 314.000 249.000 L 280.000 249.000 280.000 218.583 C 280.000 195.191,280.289 188.048,281.250 187.652 C 283.244 186.830,288.283 188.000,291.000 189.917 M302.694 189.468 L 305.500 191.937 301.000 191.937 C 297.367 191.937,296.154 191.462,294.703 189.469 L 292.907 187.000 296.398 187.000 C 298.685 187.000,300.856 187.851,302.694 189.468 M199.000 192.368 C 199.000 194.383,198.391 194.818,194.917 195.284 C 192.672 195.585,190.534 196.132,190.167 196.499 C 189.800 196.866,189.500 209.054,189.500 223.583 L 189.500 250.000 185.500 250.000 L 181.500 250.000 181.651 225.338 L 181.802 200.676 184.151 199.374 C 185.443 198.657,186.148 198.055,185.717 198.035 C 184.517 197.981,175.754 202.628,173.500 204.514 C 172.015 205.756,172.415 205.686,175.053 204.243 L 178.607 202.300 179.803 206.134 C 181.279 210.863,181.444 239.608,180.000 240.500 C 179.450 240.840,179.000 243.147,179.000 245.626 C 179.000 249.440,178.730 250.059,177.250 249.646 C 176.287 249.377,173.012 248.463,169.972 247.615 C 161.969 245.383,157.000 239.609,157.000 232.541 C 157.000 229.011,162.472 216.636,165.861 212.500 C 167.471 210.535,167.462 210.532,165.360 212.306 C 162.318 214.872,157.033 225.192,156.179 230.232 C 155.510 234.178,155.201 234.524,152.080 234.824 L 148.705 235.149 149.280 229.571 C 151.095 211.989,168.873 195.363,190.500 191.022 C 197.764 189.564,199.000 189.760,199.000 192.368 M234.264 193.509 C 252.091 199.572,266.013 215.036,267.160 230.046 C 267.492 234.391,267.423 234.507,264.362 234.805 C 261.496 235.084,261.131 234.781,260.138 231.305 L 259.051 227.500 259.575 231.275 C 260.243 236.081,256.966 242.240,252.159 245.211 C 248.865 247.247,238.018 250.352,237.169 249.502 C 236.203 248.537,235.871 209.192,236.794 205.244 C 237.342 202.903,237.436 200.770,237.003 200.502 C 235.650 199.666,234.786 206.935,234.334 222.970 C 234.042 233.335,234.270 239.136,235.025 240.547 C 235.645 241.706,236.006 244.194,235.826 246.077 C 235.508 249.419,235.393 249.500,231.000 249.500 L 226.500 249.500 226.815 245.000 C 227.905 229.432,227.990 207.693,226.967 206.461 C 226.347 205.713,225.985 203.166,226.162 200.801 L 226.484 196.500 222.312 195.573 C 218.455 194.715,216.174 192.160,217.807 190.526 C 218.778 189.556,227.048 191.054,234.264 193.509 M118.468 201.250 C 116.466 213.279,109.818 223.111,101.171 226.831 C 97.967 228.210,92.936 229.175,86.658 229.616 C 72.757 230.593,68.532 233.709,67.329 243.874 C 66.498 250.883,65.000 250.344,65.000 243.035 C 65.000 237.812,65.379 236.637,68.047 233.600 C 71.836 229.284,77.260 227.302,87.252 226.583 C 91.516 226.276,96.466 225.411,98.252 224.660 C 105.954 221.424,111.000 212.382,111.000 201.818 L 111.000 197.000 115.088 197.000 L 119.176 197.000 118.468 201.250 M307.000 202.851 C 307.000 213.245,311.097 220.828,318.476 224.093 C 320.798 225.120,326.979 226.344,332.326 226.835 C 340.239 227.563,342.721 228.211,346.070 230.428 C 351.691 234.148,354.544 241.813,352.393 247.418 C 351.204 250.517,350.000 248.926,349.996 244.250 C 349.992 238.382,347.418 233.883,342.868 231.791 C 341.016 230.940,335.225 229.949,330.000 229.589 C 317.926 228.758,311.398 225.864,306.437 219.143 C 302.997 214.483,299.000 203.870,299.000 199.395 C 299.000 197.268,299.447 197.000,303.000 197.000 L 307.000 197.000 307.000 202.851 M198.786 204.770 L 194.072 207.483 193.786 229.242 L 193.500 251.002 208.357 251.001 C 221.494 251.000,223.144 250.817,222.607 249.418 C 222.273 248.548,222.000 238.648,222.000 227.418 C 222.000 213.172,221.666 207.000,220.894 207.000 C 220.286 207.000,218.452 205.875,216.818 204.500 C 212.601 200.952,205.229 201.062,198.786 204.770 M239.500 202.664 C 240.050 203.191,243.628 206.519,247.450 210.061 C 253.241 215.426,253.871 215.814,251.225 212.388 C 249.479 210.126,246.577 207.169,244.775 205.817 C 241.071 203.036,237.924 201.156,239.500 202.664 M212.000 205.500 C 212.000 207.750,211.600 208.000,208.000 208.000 C 204.788 208.000,204.000 207.639,204.000 206.167 C 204.000 203.583,204.860 203.000,208.667 203.000 C 211.556 203.000,212.000 203.333,212.000 205.500 M216.500 206.000 C 218.257 207.941,218.247 208.000,216.155 208.000 C 214.667 208.000,214.000 207.381,214.000 206.000 C 214.000 204.900,214.155 204.000,214.345 204.000 C 214.535 204.000,215.505 204.900,216.500 206.000 M202.000 206.500 C 202.000 207.362,201.098 208.000,199.878 208.000 C 198.104 208.000,197.960 207.753,199.000 206.500 C 199.685 205.675,200.640 205.000,201.122 205.000 C 201.605 205.000,202.000 205.675,202.000 206.500 M172.478 210.232 C 166.067 215.440,162.729 220.596,161.489 227.210 C 160.183 234.168,161.100 235.000,170.067 235.000 L 178.000 235.000 178.000 221.000 C 178.000 213.300,177.653 207.000,177.228 207.000 C 176.803 207.000,174.666 208.454,172.478 210.232 M238.000 221.040 L 238.000 235.081 246.250 234.790 L 254.500 234.500 254.813 230.139 C 255.265 223.838,251.162 215.965,244.809 210.943 C 242.065 208.774,239.411 207.000,238.910 207.000 C 238.406 207.000,238.000 213.270,238.000 221.040 M177.000 221.500 C 177.000 231.695,176.735 234.000,175.564 234.000 C 174.427 234.000,174.063 231.801,173.814 223.423 C 173.498 212.779,174.062 209.000,175.968 209.000 C 176.622 209.000,177.000 213.573,177.000 221.500 M241.800 210.200 C 242.593 210.993,243.000 215.261,243.000 222.773 C 243.000 232.979,242.824 234.113,241.285 233.816 C 239.795 233.529,239.533 231.881,239.293 221.243 C 239.140 214.509,239.372 209.000,239.808 209.000 C 240.243 209.000,241.140 209.540,241.800 210.200 M207.000 211.433 C 207.000 212.221,206.171 213.128,205.158 213.450 C 202.326 214.349,199.097 218.266,198.427 221.616 C 197.956 223.970,198.404 225.326,200.455 227.765 C 201.903 229.485,203.968 231.172,205.044 231.514 C 206.120 231.855,207.000 232.540,207.000 233.036 C 207.000 234.181,204.265 233.204,200.846 230.837 C 197.210 228.321,197.000 228.439,197.000 233.000 L 197.000 237.000 202.000 237.000 L 207.000 237.000 207.000 243.500 L 207.000 250.000 201.500 250.000 C 194.480 250.000,194.258 248.061,201.250 247.815 L 206.500 247.630 201.250 247.263 L 196.000 246.895 196.000 228.448 L 196.000 210.000 201.500 210.000 C 205.607 210.000,207.000 210.363,207.000 211.433 M220.000 230.000 L 220.000 250.000 214.500 250.000 C 207.480 250.000,207.258 248.061,214.250 247.815 L 219.500 247.630 214.250 247.263 L 209.000 246.895 209.000 239.448 C 209.000 233.974,209.347 232.000,210.310 232.000 C 212.809 232.000,218.000 225.896,218.000 222.958 C 218.000 219.844,213.987 214.448,210.956 213.486 C 209.880 213.145,209.000 212.221,209.000 211.433 C 209.000 210.363,210.393 210.000,214.500 210.000 L 220.000 210.000 220.000 230.000 M172.000 223.000 C 172.000 233.333,171.879 234.000,170.000 234.000 C 168.145 234.000,168.000 233.333,168.000 224.829 C 168.000 217.698,168.368 215.251,169.655 213.829 C 170.565 212.823,171.465 212.000,171.655 212.000 C 171.845 212.000,172.000 216.950,172.000 223.000 M197.000 214.500 C 197.000 215.875,197.450 217.000,198.000 217.000 C 198.550 217.000,199.000 216.654,199.000 216.232 C 199.000 215.809,200.238 214.696,201.750 213.758 C 203.686 212.558,204.000 212.045,202.809 212.027 C 201.879 212.012,200.840 212.450,200.500 213.000 C 200.160 213.550,199.432 214.000,198.882 214.000 C 198.332 214.000,198.160 213.550,198.500 213.000 C 198.840 212.450,198.641 212.000,198.059 212.000 C 197.477 212.000,197.000 213.125,197.000 214.500 M213.500 213.170 C 214.600 213.781,216.287 214.962,217.250 215.795 C 218.858 217.187,219.000 217.094,219.000 214.655 C 219.000 213.195,218.564 212.000,218.031 212.000 C 217.499 212.000,217.350 212.787,217.701 213.750 C 218.309 215.417,218.244 215.417,216.341 213.750 C 215.242 212.787,213.703 212.014,212.921 212.030 C 212.021 212.050,212.233 212.467,213.500 213.170 M248.000 224.655 C 248.000 233.333,247.857 234.000,246.000 234.000 C 244.120 234.000,244.000 233.333,244.000 222.845 C 244.000 211.753,244.011 211.700,246.000 213.500 C 247.728 215.064,248.000 216.580,248.000 224.655 M207.000 222.583 C 207.000 229.004,206.685 231.063,205.750 230.754 C 204.954 230.491,204.391 227.861,204.201 223.520 C 203.883 216.268,204.304 214.000,205.969 214.000 C 206.597 214.000,207.000 217.354,207.000 222.583 M211.500 222.505 C 211.500 227.882,211.108 230.466,210.250 230.751 C 209.314 231.062,209.000 228.988,209.000 222.500 C 209.000 216.009,209.314 213.939,210.250 214.253 C 211.108 214.541,211.500 217.130,211.500 222.505 M202.622 223.144 C 202.676 228.520,202.516 229.059,201.342 227.453 C 199.348 224.726,199.292 220.592,201.217 218.250 C 201.783 217.563,202.316 217.000,202.403 217.000 C 202.490 217.000,202.589 219.765,202.622 223.144 M215.996 225.507 C 214.329 228.622,213.378 227.332,213.628 222.297 C 213.921 216.411,214.022 216.288,215.740 219.738 C 217.124 222.518,217.160 223.333,215.996 225.507 M166.740 226.000 C 166.770 233.185,166.581 234.000,164.887 234.000 C 162.978 234.000,162.545 232.411,162.979 227.000 C 163.153 224.828,165.799 218.000,166.467 218.000 C 166.599 218.000,166.721 221.600,166.740 226.000 M252.482 223.313 C 254.511 228.626,254.062 233.500,251.544 233.500 C 249.996 233.500,249.738 232.476,249.613 225.836 C 249.534 221.621,249.778 218.363,250.156 218.596 C 250.533 218.830,251.580 220.952,252.482 223.313 M377.676 226.074 C 376.777 229.437,376.843 230.215,377.970 229.518 C 378.504 229.189,380.606 230.445,382.642 232.311 L 386.344 235.703 381.585 237.521 C 377.532 239.069,376.694 239.128,375.929 237.919 C 375.223 236.804,375.024 236.928,375.002 238.500 C 374.986 239.600,374.715 241.625,374.400 243.000 C 374.034 244.597,374.148 245.052,374.716 244.260 C 375.205 243.578,378.284 241.932,381.557 240.602 C 387.954 238.003,392.582 238.074,394.750 240.807 C 395.853 242.197,396.000 242.134,396.000 240.273 C 396.000 239.113,396.235 237.551,396.522 236.803 C 396.921 235.763,396.118 235.531,393.105 235.819 C 389.609 236.152,388.637 235.706,384.463 231.859 C 381.876 229.474,379.437 226.651,379.042 225.585 C 378.382 223.801,378.274 223.839,377.676 226.074 M215.694 230.532 C 214.151 231.889,212.239 233.000,211.444 233.000 C 210.650 233.000,210.000 233.900,210.000 235.000 C 210.000 236.704,210.667 237.000,214.500 237.000 L 219.000 237.000 219.000 232.500 C 219.000 230.025,218.887 228.014,218.750 228.032 C 218.613 228.049,217.237 229.174,215.694 230.532 M39.909 231.877 C 38.994 234.430,21.693 236.106,20.572 233.750 C 20.245 233.063,20.202 233.625,20.475 235.000 C 20.749 236.375,20.993 238.400,21.017 239.500 C 21.057 241.339,21.143 241.359,22.080 239.750 C 22.779 238.551,24.342 238.000,27.050 238.000 C 30.748 238.000,31.000 238.186,31.000 240.918 C 31.000 242.523,31.250 244.487,31.555 245.282 C 32.315 247.262,24.056 248.692,22.848 246.789 C 22.338 245.985,22.025 246.882,22.015 249.173 C 22.000 252.836,22.008 252.843,24.750 251.526 C 29.053 249.458,41.075 248.510,42.118 250.156 C 42.739 251.136,42.974 250.913,42.985 249.332 C 43.005 246.398,41.864 243.615,41.111 244.762 C 40.775 245.273,38.862 245.949,36.859 246.265 C 33.431 246.805,33.182 246.661,32.609 243.794 C 31.343 237.466,31.610 237.000,36.500 237.000 C 39.262 237.000,41.000 237.451,41.000 238.167 C 41.000 238.808,41.178 239.146,41.395 238.917 C 41.612 238.688,41.477 236.700,41.096 234.500 C 40.714 232.300,40.180 231.120,39.909 231.877 M202.882 233.250 L 206.500 235.500 203.105 235.824 C 199.771 236.142,198.048 234.932,198.015 232.250 C 197.994 230.515,198.727 230.666,202.882 233.250 M218.000 233.500 C 218.000 235.690,217.567 236.000,214.500 236.000 C 210.288 236.000,210.067 235.065,213.752 232.841 C 217.534 230.559,218.000 230.631,218.000 233.500 M372.293 246.627 C 372.638 246.972,372.214 248.620,371.350 250.289 C 367.991 256.786,373.781 264.987,381.734 264.996 C 383.887 264.999,386.044 264.039,388.185 262.126 C 391.015 259.598,391.407 258.622,391.450 254.000 L 391.500 248.748 386.500 247.418 C 383.750 246.687,381.387 246.068,381.250 246.044 C 381.113 246.020,381.001 247.012,381.003 248.250 C 381.005 250.114,381.571 250.511,384.304 250.567 C 391.443 250.711,392.966 253.603,388.586 258.694 C 386.557 261.052,385.437 261.485,381.564 261.404 C 375.666 261.280,372.000 258.178,372.000 253.311 C 372.000 250.615,372.627 249.588,375.250 247.989 L 378.500 246.007 375.083 246.004 C 373.204 246.002,371.949 246.282,372.293 246.627 M64.000 256.138 L 64.000 260.000 209.000 260.000 L 354.000 260.000 354.000 256.607 C 354.000 254.640,353.418 252.991,352.616 252.683 C 351.855 252.391,286.605 252.180,207.616 252.214 L 64.000 252.276 64.000 256.138 M23.694 256.937 C 24.287 259.207,26.000 260.783,26.000 259.059 C 26.000 258.477,27.315 258.000,28.922 258.000 C 31.385 258.000,32.030 258.560,33.021 261.563 C 34.033 264.631,33.949 265.399,32.411 267.098 C 31.430 268.183,30.006 268.832,29.248 268.542 C 28.229 268.151,28.047 268.572,28.549 270.153 C 29.761 273.973,33.980 282.537,33.990 281.199 C 33.998 280.128,39.569 277.000,41.468 277.000 C 42.695 277.000,41.819 279.573,39.072 284.038 L 36.144 288.796 39.080 295.005 C 43.473 304.293,45.681 307.000,48.868 307.000 C 52.048 307.000,54.000 305.377,54.000 302.733 C 54.000 301.332,54.491 301.021,55.962 301.488 C 59.239 302.528,62.002 300.337,61.983 296.715 C 61.963 292.930,56.404 282.713,55.851 285.445 C 55.478 287.291,41.209 295.247,39.816 294.387 C 38.545 293.600,38.853 290.171,40.463 287.200 C 43.440 281.708,43.531 281.646,46.138 283.355 C 48.112 284.648,48.959 284.706,51.014 283.685 C 54.177 282.114,54.593 279.121,52.434 273.467 C 51.263 270.401,50.372 269.276,49.611 269.906 C 49.000 270.412,45.125 272.170,41.000 273.812 C 33.585 276.764,31.000 276.695,31.000 273.546 C 31.000 272.881,34.406 269.277,38.568 265.537 C 42.731 261.797,45.768 258.394,45.318 257.974 C 44.868 257.555,40.450 257.002,35.500 256.745 C 30.550 256.488,25.745 255.955,24.823 255.560 C 23.485 254.987,23.257 255.266,23.694 256.937 M351.000 256.000 C 351.000 256.662,302.814 257.000,208.441 257.000 C 113.656 257.000,66.089 256.665,66.500 256.000 C 67.356 254.615,351.000 254.615,351.000 256.000 M39.472 258.628 C 40.912 259.180,40.840 259.541,38.880 261.628 C 37.654 262.933,36.352 264.000,35.986 264.000 C 35.388 264.000,33.000 259.565,33.000 258.453 C 33.000 257.781,37.588 257.904,39.472 258.628 M370.500 267.161 C 367.140 269.008,365.046 272.331,365.022 275.850 C 364.993 280.323,370.457 286.000,374.793 286.000 C 379.278 286.000,380.462 290.540,377.114 294.895 L 375.272 297.290 367.570 293.039 C 362.359 290.162,360.041 288.336,360.403 287.393 C 361.370 284.872,360.082 285.940,358.526 288.950 C 356.771 292.343,356.605 293.362,357.940 292.537 C 359.538 291.549,373.882 299.207,374.206 301.221 C 374.398 302.413,375.716 300.784,377.998 296.535 C 381.012 290.924,381.322 289.745,380.239 288.011 C 379.548 286.905,379.371 286.000,379.846 286.000 C 380.320 286.000,381.899 284.896,383.354 283.548 C 386.453 280.676,386.968 274.827,384.439 271.217 C 381.303 266.739,374.740 264.829,370.500 267.161 M377.685 270.067 C 387.068 273.622,387.426 283.006,378.179 282.996 C 374.069 282.992,368.683 280.144,367.064 277.119 C 365.848 274.848,367.082 270.525,369.185 269.684 C 371.401 268.797,374.731 268.947,377.685 270.067 M51.339 278.835 C 49.907 281.121,46.584 281.441,44.625 279.482 C 42.255 277.112,42.577 276.385,46.750 274.696 C 50.300 273.260,50.550 273.286,51.441 275.175 C 52.049 276.464,52.012 277.761,51.339 278.835 M141.000 279.500 C 141.000 281.833,140.667 282.000,136.000 282.000 C 131.667 282.000,131.000 282.267,131.000 284.000 C 131.000 285.727,131.717 286.021,136.250 286.150 L 141.500 286.300 137.000 286.900 L 132.500 287.500 132.208 295.250 C 131.917 302.961,131.929 303.000,134.458 303.000 C 135.856 303.000,137.000 302.550,137.000 302.000 C 137.000 300.505,139.937 300.794,141.597 302.454 C 142.868 303.725,142.203 303.945,136.286 304.204 C 130.779 304.445,129.459 304.825,129.187 306.250 C 128.912 307.692,129.593 308.000,133.049 308.000 C 136.323 308.000,137.014 308.278,136.193 309.268 C 135.433 310.183,135.663 311.225,137.023 313.018 C 138.813 315.379,138.990 315.415,140.659 313.757 C 142.030 312.396,142.150 311.750,141.207 310.807 C 139.040 308.640,139.919 308.000,145.070 308.000 C 149.755 308.000,150.115 308.171,149.820 310.250 C 149.614 311.696,148.696 312.614,147.250 312.820 C 144.704 313.181,144.613 313.408,145.987 315.976 C 146.670 317.252,147.671 317.649,149.237 317.265 C 152.869 316.376,154.000 314.978,154.000 311.378 C 154.000 308.171,154.181 308.000,157.573 308.000 C 160.436 308.000,161.081 307.652,160.815 306.250 C 160.597 305.097,159.377 304.393,157.242 304.187 C 155.459 304.014,154.000 303.452,154.000 302.937 C 154.000 302.421,154.450 302.000,155.000 302.000 C 155.577 302.000,156.000 298.851,156.000 294.552 L 156.000 287.105 150.750 286.737 C 145.832 286.393,145.927 286.358,152.250 286.185 C 158.272 286.020,159.000 285.784,159.000 284.000 C 159.000 282.533,158.333 282.000,156.500 282.000 C 155.043 282.000,154.000 281.425,154.000 280.622 C 154.000 278.575,151.650 276.980,150.071 277.956 C 149.322 278.419,148.985 279.519,149.323 280.399 C 149.758 281.533,149.363 282.000,147.969 282.000 C 146.535 282.000,146.000 281.320,146.000 279.500 C 146.000 277.500,145.500 277.000,143.500 277.000 C 141.500 277.000,141.000 277.500,141.000 279.500 M122.800 283.750 C 122.540 288.733,122.233 289.500,120.500 289.501 C 117.581 289.503,117.806 293.402,120.750 293.820 C 122.933 294.130,123.000 294.477,123.000 305.570 C 123.000 316.333,123.117 317.000,125.000 317.000 C 126.884 317.000,127.000 316.333,127.000 305.500 C 127.000 294.667,127.116 294.000,129.000 294.000 C 130.481 294.000,131.000 293.333,131.000 291.433 C 131.000 289.320,130.645 288.978,129.000 289.500 C 127.150 290.087,127.000 289.680,127.000 284.067 C 127.000 278.718,126.769 278.000,125.050 278.000 C 123.377 278.000,123.057 278.818,122.800 283.750 M196.000 282.500 C 196.000 285.023,195.531 287.000,194.933 287.000 C 194.320 287.000,194.136 286.147,194.500 285.000 C 195.019 283.366,194.680 283.000,192.650 283.000 C 190.496 283.000,190.030 283.631,189.147 287.752 C 188.586 290.366,187.848 293.232,187.507 294.121 C 187.080 295.233,187.563 295.914,189.055 296.304 C 190.778 296.755,191.449 296.270,192.330 293.935 C 193.961 289.615,196.000 290.199,196.000 294.986 C 196.000 298.866,195.883 299.001,191.568 300.087 C 187.391 301.139,187.197 301.339,188.210 303.561 C 189.061 305.429,189.656 305.719,191.076 304.959 C 195.209 302.748,196.000 303.638,196.000 310.500 C 196.000 316.767,196.090 317.000,198.500 317.000 C 200.945 317.000,201.000 316.835,201.000 309.475 C 201.000 302.369,201.139 301.898,203.500 301.000 C 206.994 299.672,206.845 296.756,203.304 297.178 C 200.917 297.463,200.608 297.164,200.604 294.567 C 200.602 292.953,201.140 291.453,201.800 291.233 C 202.460 291.013,203.000 291.498,203.000 292.310 C 203.000 294.286,206.175 295.428,207.119 293.791 C 207.528 293.081,208.555 291.600,209.400 290.500 C 210.842 288.623,210.938 288.613,210.968 290.349 C 211.015 293.053,208.250 298.417,205.456 301.041 C 203.599 302.786,203.287 303.641,204.135 304.663 C 204.745 305.398,205.862 306.000,206.616 306.000 C 208.654 306.000,213.532 298.744,214.987 293.548 C 215.687 291.047,216.640 289.000,217.105 289.000 C 218.110 289.000,217.374 293.719,215.371 300.121 C 213.909 304.794,207.820 312.000,205.333 312.000 C 203.560 312.000,203.652 312.958,205.635 315.149 C 207.200 316.878,207.434 316.825,211.148 313.883 C 216.366 309.750,219.740 303.687,221.440 295.387 L 222.851 288.500 222.296 299.500 C 221.992 305.550,221.549 310.837,221.312 311.250 C 221.076 311.663,219.559 312.000,217.941 312.000 C 214.723 312.000,214.347 312.736,216.250 315.305 C 217.305 316.729,218.094 316.828,221.298 315.936 C 223.693 315.270,225.395 314.071,225.908 312.690 C 226.356 311.485,226.962 304.762,227.255 297.750 L 227.789 285.000 220.394 285.000 C 212.851 285.000,211.342 284.058,214.242 281.158 C 215.230 280.170,215.180 279.725,213.992 278.974 C 211.214 277.218,210.061 277.987,207.883 283.051 C 206.375 286.556,205.270 287.934,204.273 287.551 C 203.483 287.248,202.423 287.000,201.918 287.000 C 201.413 287.000,201.000 284.975,201.000 282.500 C 201.000 278.367,200.796 278.000,198.500 278.000 C 196.204 278.000,196.000 278.367,196.000 282.500 M282.245 280.500 C 282.701 282.886,282.504 283.000,277.920 283.000 C 275.279 283.000,272.840 283.450,272.500 284.000 C 272.160 284.550,270.285 285.000,268.334 285.000 C 265.362 285.000,264.897 284.716,265.467 283.250 C 266.694 280.099,266.529 279.552,264.246 279.204 C 262.751 278.976,261.788 279.473,261.388 280.680 C 261.056 281.681,259.650 284.913,258.264 287.862 C 256.196 292.261,255.991 293.380,257.122 294.096 C 259.288 295.468,259.844 295.202,261.500 292.000 C 263.159 288.792,267.787 287.507,266.607 290.582 C 266.273 291.452,266.000 292.577,266.000 293.082 C 266.000 293.587,264.917 294.000,263.594 294.000 C 261.234 294.000,261.180 294.200,260.788 304.250 C 260.275 317.416,260.989 318.404,267.316 313.284 C 269.888 311.203,271.994 308.964,271.996 308.309 C 272.002 306.508,269.972 305.628,268.713 306.887 C 266.533 309.067,266.000 307.909,266.000 301.000 C 266.000 294.837,266.223 294.000,267.864 294.000 C 269.005 294.000,270.288 292.739,271.170 290.750 C 271.963 288.962,272.476 288.096,272.309 288.824 C 272.142 289.553,272.702 290.845,273.553 291.696 C 274.800 292.943,275.066 295.594,274.927 305.371 C 274.761 317.031,274.837 317.512,276.877 317.820 C 278.275 318.030,279.000 317.603,279.000 316.570 C 279.000 314.346,290.510 314.282,291.362 316.500 C 291.678 317.325,292.851 318.000,293.969 318.000 C 295.817 318.000,296.000 317.369,296.000 311.000 L 296.000 304.000 287.500 304.000 C 282.500 304.000,279.000 303.588,279.000 303.000 C 279.000 302.429,282.000 302.000,286.000 302.000 L 293.000 302.000 293.000 296.500 L 293.000 291.000 285.000 291.000 C 277.667 291.000,277.000 290.833,277.000 289.000 C 277.000 287.176,277.667 287.000,284.594 287.000 C 291.346 287.000,292.245 287.222,292.710 289.000 C 293.000 290.107,294.074 291.000,295.117 291.000 C 296.647 291.000,297.000 290.251,297.000 287.000 L 297.000 283.000 292.475 283.000 C 288.569 283.000,287.821 282.658,287.000 280.500 C 286.395 278.908,285.272 278.000,283.908 278.000 C 282.163 278.000,281.855 278.463,282.245 280.500 M60.000 294.569 C 60.000 299.474,54.316 300.184,52.202 295.544 C 51.213 293.373,51.428 292.927,54.300 291.189 C 57.182 289.445,57.624 289.408,58.750 290.817 C 59.438 291.678,60.000 293.366,60.000 294.569 M140.250 291.662 C 139.563 291.940,138.438 291.940,137.750 291.662 C 137.063 291.385,137.625 291.158,139.000 291.158 C 140.375 291.158,140.938 291.385,140.250 291.662 M150.269 291.656 C 149.592 291.930,148.242 291.947,147.269 291.693 C 146.296 291.439,146.850 291.215,148.500 291.195 C 150.150 291.175,150.946 291.382,150.269 291.656 M51.028 296.052 C 52.483 298.771,51.915 302.036,49.750 303.393 C 47.710 304.672,45.462 303.582,43.242 300.237 C 41.911 298.234,42.044 297.944,45.156 296.046 C 49.309 293.514,49.670 293.515,51.028 296.052 M289.000 296.500 C 289.000 297.633,287.778 298.000,284.000 298.000 C 280.222 298.000,279.000 297.633,279.000 296.500 C 279.000 295.367,280.222 295.000,284.000 295.000 C 287.778 295.000,289.000 295.367,289.000 296.500 M140.250 296.662 C 139.563 296.940,138.438 296.940,137.750 296.662 C 137.063 296.385,137.625 296.158,139.000 296.158 C 140.375 296.158,140.938 296.385,140.250 296.662 M150.269 296.656 C 149.592 296.930,148.242 296.947,147.269 296.693 C 146.296 296.439,146.850 296.215,148.500 296.195 C 150.150 296.175,150.946 296.382,150.269 296.656 M353.913 298.282 C 353.041 298.952,351.803 300.483,351.163 301.684 C 345.792 311.769,359.985 322.168,368.077 314.077 C 372.304 309.850,372.132 304.932,367.600 300.400 C 364.758 297.558,363.486 297.005,359.850 297.032 C 357.457 297.049,354.786 297.612,353.913 298.282 M362.857 300.927 C 364.934 301.987,367.222 303.563,367.942 304.430 C 369.597 306.425,369.628 310.538,368.003 312.497 C 365.001 316.114,354.192 312.291,351.921 306.810 C 350.862 304.253,350.990 303.640,353.037 301.461 C 355.822 298.496,357.873 298.385,362.857 300.927 M150.417 302.357 C 150.028 303.370,148.649 304.000,146.822 304.000 C 144.289 304.000,144.060 303.797,145.249 302.608 C 146.471 301.386,150.013 300.061,150.774 300.541 C 150.924 300.636,150.763 301.453,150.417 302.357 M65.000 302.386 C 65.000 304.203,51.297 312.328,49.436 311.614 C 47.551 310.890,47.618 311.325,49.996 315.226 C 51.231 317.251,51.994 317.861,51.996 316.825 C 52.001 314.869,66.588 305.627,68.148 306.592 C 68.708 306.937,68.441 305.821,67.557 304.110 C 65.819 300.749,65.000 300.197,65.000 302.386 M71.000 308.770 C 71.000 310.399,69.170 312.201,64.068 315.593 C 60.256 318.128,56.656 319.905,56.068 319.542 C 54.554 318.606,54.801 320.153,56.532 322.441 C 57.689 323.971,58.000 324.054,58.000 322.833 C 58.000 321.468,68.753 313.351,69.466 314.177 C 69.620 314.355,68.462 318.550,66.894 323.500 C 65.326 328.450,64.146 332.835,64.271 333.245 C 64.397 333.654,67.875 331.730,72.000 328.968 C 76.125 326.206,80.267 324.136,81.204 324.367 C 82.775 324.756,82.786 324.602,81.339 322.394 C 79.879 320.166,78.169 318.847,79.471 320.953 C 79.996 321.802,70.512 329.000,68.869 329.000 C 68.507 329.000,69.522 324.925,71.124 319.945 C 73.785 311.668,73.905 310.702,72.518 308.722 L 71.000 306.555 71.000 308.770 M291.000 309.500 C 291.000 310.667,289.667 311.000,285.000 311.000 C 280.333 311.000,279.000 310.667,279.000 309.500 C 279.000 308.333,280.333 308.000,285.000 308.000 C 289.667 308.000,291.000 308.333,291.000 309.500 M344.684 311.360 C 343.280 313.503,343.248 313.842,344.497 313.363 C 345.370 313.028,348.124 314.403,351.064 316.643 L 356.127 320.500 346.314 320.874 L 336.500 321.247 332.075 326.159 C 329.642 328.861,328.309 330.819,329.113 330.510 C 329.965 330.183,331.793 331.218,333.487 332.986 L 336.397 336.023 332.948 338.981 L 329.500 341.938 326.791 338.806 C 325.302 337.084,324.353 335.237,324.684 334.702 C 325.015 334.167,323.871 334.775,322.143 336.053 C 318.790 338.531,318.112 339.555,320.406 338.674 C 322.339 337.933,334.388 350.545,333.632 352.518 C 332.823 354.625,333.246 354.396,336.561 350.936 C 338.176 349.251,338.805 348.138,337.960 348.462 C 337.017 348.824,335.295 347.874,333.503 346.003 L 330.583 342.955 333.769 339.769 L 336.955 336.583 340.003 339.503 C 341.680 341.109,342.816 343.036,342.529 343.785 C 342.242 344.534,343.282 344.101,344.842 342.823 C 347.011 341.046,347.304 340.430,346.089 340.201 C 345.215 340.036,341.948 337.128,338.829 333.738 C 334.256 328.766,333.343 327.227,334.114 325.787 C 334.640 324.804,335.746 324.000,336.572 324.000 C 338.974 324.000,351.127 334.227,350.541 335.755 C 349.772 337.759,351.815 336.213,353.094 333.824 C 353.917 332.286,353.907 331.939,353.055 332.466 C 352.416 332.861,349.423 331.258,346.281 328.837 L 340.651 324.500 350.898 324.000 L 361.144 323.500 358.322 320.906 C 356.770 319.479,353.765 317.027,351.644 315.457 C 349.523 313.886,347.470 311.741,347.081 310.690 C 346.425 308.916,346.254 308.964,344.684 311.360 M87.588 329.369 C 88.361 331.383,76.014 342.183,73.620 341.587 C 72.128 341.216,72.322 341.727,74.557 344.060 C 77.348 346.973,78.642 347.848,77.553 346.086 C 77.018 345.219,86.548 335.408,89.588 333.696 C 91.502 332.618,93.000 333.674,93.000 336.102 C 93.000 338.288,84.560 347.854,81.693 348.917 C 79.990 349.548,80.004 349.694,81.943 351.448 C 83.952 353.267,84.000 353.265,84.000 351.363 C 84.000 350.292,86.081 347.410,88.625 344.958 L 93.251 340.500 92.667 350.750 C 92.346 356.387,92.402 360.972,92.792 360.937 C 93.181 360.903,96.184 357.753,99.464 353.938 C 104.146 348.492,105.866 347.122,107.464 347.563 C 109.214 348.046,109.149 347.842,107.000 346.112 C 105.299 344.742,104.377 344.482,104.116 345.299 C 103.582 346.971,97.017 355.000,96.183 355.002 C 95.807 355.003,95.620 350.841,95.766 345.752 L 96.032 336.500 91.980 332.250 C 87.707 327.768,86.727 327.126,87.588 329.369 M160.300 329.646 C 159.441 329.995,159.375 330.856,160.067 332.676 C 160.677 334.280,160.688 336.471,160.097 338.609 C 159.178 341.939,159.217 342.000,162.281 342.000 C 164.707 342.000,165.133 341.733,164.200 340.800 C 162.495 339.095,162.713 333.483,164.542 331.965 C 166.937 329.977,168.268 332.167,167.851 337.408 C 167.529 341.460,167.722 342.000,169.493 342.002 C 171.247 342.003,171.500 341.344,171.500 336.772 C 171.500 332.481,171.832 331.475,173.348 331.178 C 175.000 330.854,175.159 331.410,174.848 336.409 L 174.500 342.003 177.450 342.001 C 179.744 342.000,180.133 341.733,179.200 340.800 C 178.540 340.140,178.000 337.470,178.000 334.867 C 178.000 331.043,177.623 330.015,176.038 329.512 C 174.959 329.169,173.227 329.343,172.191 329.898 C 170.885 330.597,169.961 330.561,169.180 329.780 C 168.346 328.946,167.400 328.952,165.527 329.806 C 163.997 330.503,163.000 330.571,163.000 329.979 C 163.000 328.941,162.258 328.850,160.300 329.646 M181.814 330.275 C 182.396 330.977,183.013 333.789,183.186 336.525 L 183.500 341.500 188.000 341.652 C 190.475 341.736,193.175 341.412,194.000 340.933 C 194.985 340.360,195.071 340.050,194.250 340.030 C 193.405 340.010,193.000 338.217,193.000 334.500 C 193.000 329.929,192.704 329.000,191.250 328.998 C 189.806 328.997,189.500 329.912,189.500 334.228 C 189.500 338.414,189.150 339.529,187.750 339.803 C 186.252 340.097,186.000 339.345,186.000 334.573 C 186.000 329.226,185.894 329.000,183.378 329.000 C 181.365 329.000,181.001 329.297,181.814 330.275 M197.903 331.182 C 196.848 333.153,197.124 333.727,200.492 336.554 C 202.646 338.363,203.816 339.996,203.221 340.363 C 201.949 341.150,199.000 340.123,199.000 338.893 C 199.000 338.402,198.550 338.000,198.000 338.000 C 197.450 338.000,197.000 338.900,197.000 340.000 C 197.000 341.543,197.667 342.000,199.918 342.000 C 204.346 342.000,206.000 341.026,206.000 338.419 C 206.000 336.800,205.052 335.561,203.000 334.500 C 199.952 332.924,199.250 331.581,200.932 330.542 C 201.444 330.226,202.569 330.974,203.432 332.206 L 205.000 334.445 205.000 331.935 C 205.000 329.872,204.474 329.385,202.042 329.200 C 199.874 329.035,198.768 329.564,197.903 331.182 M214.794 330.568 C 217.489 332.456,216.827 334.000,213.324 334.000 C 211.235 334.000,210.865 333.623,211.305 331.943 C 211.746 330.255,211.588 330.097,210.421 331.065 C 208.247 332.869,208.625 339.350,211.030 341.527 C 212.618 342.964,213.635 343.162,215.699 342.432 C 217.149 341.920,218.535 340.903,218.777 340.174 C 219.139 339.084,218.851 339.076,217.165 340.129 C 215.421 341.218,214.802 341.131,213.056 339.551 C 209.795 336.599,210.457 335.000,214.941 335.000 C 217.109 335.000,219.115 334.623,219.399 334.163 C 220.309 332.691,216.964 329.000,214.721 329.000 L 212.555 329.000 214.794 330.568 M222.768 330.250 C 223.325 330.938,223.742 333.084,223.694 335.019 C 223.548 341.038,224.375 342.023,229.213 341.586 C 231.571 341.373,233.730 341.154,234.012 341.099 C 234.293 341.045,234.293 338.413,234.012 335.250 C 233.548 330.038,233.266 329.469,231.000 329.165 C 228.979 328.895,228.740 329.077,229.750 330.115 C 231.597 332.014,231.354 338.650,229.410 339.396 C 226.789 340.402,226.000 339.140,226.000 333.941 C 226.000 329.572,225.754 329.000,223.878 329.000 C 222.306 329.000,222.018 329.325,222.768 330.250 M238.500 329.765 C 237.950 330.169,237.500 333.088,237.500 336.252 C 237.500 341.452,237.704 342.003,239.627 342.002 C 241.541 342.000,241.706 341.570,241.271 337.711 C 240.774 333.299,242.683 330.068,244.956 331.473 C 246.391 332.360,246.274 339.326,244.800 340.800 C 243.867 341.733,244.256 342.000,246.550 342.002 C 249.442 342.004,249.500 341.901,249.500 336.752 C 249.500 332.750,249.857 331.500,251.000 331.500 C 252.143 331.500,252.500 332.750,252.500 336.752 C 252.500 341.337,252.754 342.003,254.500 342.003 C 256.297 342.003,256.466 341.449,256.160 336.549 C 255.768 330.251,254.113 328.173,250.720 329.715 C 249.187 330.412,247.960 330.382,246.753 329.619 C 245.456 328.799,244.492 328.836,243.003 329.766 C 241.817 330.507,241.000 330.606,241.000 330.008 C 241.000 328.829,239.917 328.724,238.500 329.765 M314.791 342.599 C 310.302 345.477,309.000 347.711,309.000 352.534 C 309.000 357.723,314.283 363.000,319.477 363.000 C 324.236 363.000,329.073 358.525,328.850 354.327 L 328.700 351.500 328.286 354.228 C 327.816 357.319,323.719 361.000,320.747 361.000 C 319.657 361.000,317.018 359.253,314.882 357.118 C 310.893 353.128,310.001 349.735,311.974 346.049 C 313.220 343.720,317.467 342.644,320.021 344.011 C 322.469 345.322,322.619 343.856,320.250 341.766 C 318.659 340.362,318.163 340.438,314.791 342.599 M107.655 351.829 C 105.466 354.247,105.551 355.181,108.489 360.979 C 111.276 366.478,110.938 369.000,107.416 369.000 C 104.643 369.000,101.654 365.066,102.584 362.641 C 103.704 359.722,102.101 360.902,100.399 364.250 C 99.489 366.038,99.090 367.175,99.512 366.778 C 99.933 366.381,101.600 367.168,103.216 368.528 C 106.774 371.522,109.340 371.660,112.000 369.000 C 114.632 366.368,114.528 364.947,111.276 359.123 C 108.947 354.950,108.747 354.009,109.899 352.622 C 111.660 350.499,112.576 350.576,115.051 353.051 C 116.375 354.375,116.883 355.793,116.484 357.051 C 115.668 359.621,116.637 359.547,118.037 356.931 C 118.966 355.195,118.722 354.472,116.520 352.431 C 113.402 349.541,109.938 349.306,107.655 351.829 M297.500 355.188 C 294.200 357.370,287.974 360.945,283.664 363.132 C 277.875 366.070,275.981 367.508,276.414 368.636 C 276.736 369.476,277.007 370.464,277.015 370.832 C 277.023 371.199,277.597 370.379,278.290 369.009 C 280.562 364.517,282.444 365.414,286.353 372.851 C 288.359 376.669,290.000 380.526,290.000 381.422 C 290.000 382.910,290.259 382.917,293.000 381.500 C 294.650 380.647,296.000 379.709,296.000 379.415 C 296.000 379.122,295.566 379.150,295.036 379.478 C 294.037 380.095,290.882 375.616,287.121 368.240 L 284.949 363.980 287.445 362.843 C 289.388 361.958,290.335 362.005,291.720 363.055 C 293.238 364.205,293.316 364.198,292.250 363.002 C 290.593 361.144,290.669 360.000,292.449 360.000 C 294.651 360.000,303.320 372.670,302.711 374.998 C 302.304 376.553,303.418 376.122,308.352 372.813 C 311.733 370.546,314.683 368.539,314.907 368.355 C 315.131 368.170,314.824 367.002,314.225 365.760 L 313.135 363.500 313.068 365.682 C 313.006 367.677,308.379 372.017,306.346 371.988 C 305.881 371.981,304.508 370.444,303.296 368.572 L 301.093 365.169 303.627 363.509 C 305.021 362.595,306.811 362.097,307.604 362.402 C 308.749 362.841,308.834 362.559,308.018 361.033 C 306.777 358.714,304.802 357.321,305.562 359.300 C 305.877 360.121,304.971 361.444,303.384 362.484 C 300.766 364.200,300.615 364.196,299.260 362.382 C 296.020 358.047,296.008 357.426,299.131 355.581 C 300.787 354.604,303.035 354.037,304.128 354.323 C 305.848 354.773,305.943 354.618,304.840 353.171 C 304.139 352.252,303.551 351.437,303.533 351.360 C 303.515 351.283,300.800 353.005,297.500 355.188 M122.872 359.692 C 121.828 360.980,121.812 361.196,122.807 360.598 C 124.385 359.649,129.000 360.666,129.000 361.963 C 129.000 363.685,120.555 376.939,119.278 377.220 C 118.581 377.374,119.327 378.249,120.937 379.164 C 123.680 380.724,123.855 380.721,123.734 379.120 C 123.638 377.845,129.075 367.493,131.592 364.159 C 132.431 363.046,136.000 365.449,136.000 367.126 C 136.000 368.222,136.450 368.840,137.000 368.500 C 139.224 367.125,137.697 365.053,131.928 361.617 C 124.961 357.466,124.719 357.415,122.872 359.692 M142.578 367.342 C 143.294 369.208,136.411 383.992,134.807 384.035 C 134.088 384.055,134.625 384.714,136.000 385.500 C 138.903 387.160,140.362 387.395,139.545 386.073 C 138.618 384.573,145.658 369.646,147.616 368.959 C 149.035 368.461,148.717 368.097,146.050 367.167 C 141.895 365.719,141.954 365.716,142.578 367.342 M149.542 370.792 C 149.244 371.090,149.000 371.988,149.000 372.789 C 149.000 373.871,149.334 373.968,150.302 373.164 C 152.175 371.610,156.262 372.876,155.529 374.784 C 155.208 375.620,154.217 379.274,153.327 382.902 C 152.436 386.531,151.269 390.063,150.732 390.750 C 150.043 391.632,150.209 392.000,151.296 392.000 C 152.143 392.000,153.473 392.244,154.251 392.543 C 155.309 392.949,155.573 392.381,155.298 390.293 C 154.847 386.883,158.220 374.760,159.762 374.246 C 160.374 374.042,161.762 374.762,162.845 375.845 C 164.714 377.714,164.839 377.722,165.289 376.002 C 165.689 374.473,164.531 373.879,157.923 372.219 C 153.611 371.136,149.839 370.494,149.542 370.792 M256.500 373.270 C 253.200 374.445,251.260 375.567,252.188 375.764 C 254.089 376.168,259.551 391.121,258.653 393.462 C 258.223 394.582,258.668 394.663,260.925 393.876 L 263.732 392.898 261.866 389.237 C 260.840 387.224,260.000 385.028,260.000 384.356 C 260.000 382.566,263.862 381.641,265.535 383.029 C 266.767 384.051,266.821 383.786,265.914 381.184 C 264.868 378.183,264.831 378.169,262.927 380.073 C 261.867 381.133,260.539 382.000,259.975 382.000 C 258.896 382.000,257.000 377.844,257.000 375.480 C 257.000 373.478,263.935 372.320,265.163 374.118 C 265.883 375.171,266.033 375.027,265.792 373.511 C 265.364 370.810,263.546 370.763,256.500 373.270 M167.876 375.351 C 168.611 376.236,168.491 378.228,167.473 382.055 C 164.549 393.041,166.296 397.000,174.068 397.000 C 178.832 397.000,180.474 395.016,182.549 386.750 C 183.481 383.038,184.638 380.000,185.122 380.000 C 185.605 380.000,186.000 380.540,186.000 381.200 C 186.000 382.133,186.267 382.133,187.200 381.200 C 188.682 379.718,193.000 379.612,193.000 381.058 C 193.000 385.920,190.561 396.716,189.228 397.750 C 187.780 398.874,187.813 399.001,189.559 399.014 C 190.626 399.021,192.625 399.285,194.000 399.600 C 195.810 400.015,196.116 399.902,195.108 399.190 C 193.740 398.223,193.885 394.178,195.646 384.250 C 196.290 380.619,198.759 379.902,201.429 382.571 C 202.857 384.000,203.000 384.000,203.000 382.571 C 203.000 381.707,203.675 381.000,204.500 381.000 C 205.727 381.000,206.000 382.713,206.000 390.417 C 206.000 397.014,205.626 399.984,204.750 400.338 C 204.063 400.615,206.537 400.878,210.250 400.921 C 215.822 400.986,217.364 400.636,219.083 398.917 C 220.229 397.771,220.870 396.537,220.508 396.175 C 220.146 395.813,219.411 396.300,218.875 397.258 C 218.174 398.512,216.638 399.000,213.393 399.000 L 208.885 399.000 209.193 394.844 C 209.452 391.343,209.875 390.633,211.881 390.331 C 213.191 390.134,214.878 390.484,215.631 391.109 C 216.738 392.027,216.985 391.694,216.921 389.372 C 216.878 387.793,216.615 387.063,216.338 387.750 C 216.060 388.438,214.296 389.000,212.417 389.000 C 209.097 389.000,209.000 388.886,209.000 385.000 C 209.000 381.008,209.008 381.000,212.950 381.000 C 215.658 381.000,217.221 381.551,217.920 382.750 C 218.845 384.338,218.942 384.305,218.970 382.394 C 218.998 380.392,218.343 380.252,205.750 379.570 C 198.463 379.176,189.843 378.682,186.596 378.472 C 182.516 378.209,181.012 378.412,181.729 379.129 C 182.944 380.344,180.709 390.160,178.401 393.750 C 176.803 396.234,172.221 396.821,170.200 394.800 C 167.875 392.475,169.785 379.675,172.819 377.250 C 173.679 376.563,174.181 376.000,173.935 376.000 C 173.688 376.000,171.989 375.570,170.159 375.046 C 167.519 374.288,167.047 374.351,167.876 375.351 M238.961 376.412 C 235.245 378.506,233.627 382.180,234.279 387.043 C 235.684 397.522,247.097 400.170,252.306 391.225 C 257.390 382.495,247.550 371.572,238.961 376.412 M246.497 378.250 C 251.616 382.665,251.728 393.851,246.663 394.826 C 242.777 395.575,240.236 394.048,238.612 389.989 C 235.936 383.301,236.503 379.462,240.500 377.195 C 243.243 375.640,243.529 375.690,246.497 378.250 " stroke="none" fill="#0F9D58" fill-rule="evenodd"/></svg>